<?xml version="1.0" encoding="UTF-8" standalone="no"?><svg xmlns="http://www.w3.org/2000/svg" xmlns:xlink="http://www.w3.org/1999/xlink" clip-rule="evenodd" stroke-miterlimit="4.00" viewBox="0 0 375 54"><desc>SVG generated by Keynote</desc><defs></defs><g transform="matrix(1.00, 0.00, -0.00, -1.00, 0.0, 54.0)"><g><clipPath id="clip-270"><path d="M 78.6 -3.6 L 191.4 -3.6 L 191.4 57.4 L 78.6 57.4 Z M 78.6 -3.6 "></path></clipPath><g clip-path="url(#clip-270)"><text xml:space="preserve" font-family="Helvetica-Light" font-size="36.0" fill="#000000" transform="matrix(1.00, 0.00, -0.00, -1.00, 88.0, 14.0)">i</text><text xml:space="preserve" font-family="Helvetica-Light" font-size="36.0" fill="#000000" transform="matrix(1.00, 0.00, -0.00, -1.00, 96.0, 14.0)">*</text><text xml:space="preserve" font-family="Helvetica-Light" font-size="36.0" fill="#000000" transform="matrix(1.00, 0.00, -0.00, -1.00, 110.0, 14.0)">4</text><text xml:space="preserve" font-family="Helvetica-Light" font-size="36.0" fill="#000000" transform="matrix(1.00, 0.00, -0.00, -1.00, 130.0, 14.0)"> </text><text xml:space="preserve" font-family="Helvetica-Light" font-size="36.0" fill="#000000" transform="matrix(1.00, 0.00, -0.00, -1.00, 140.0, 14.0)">+</text><text xml:space="preserve" font-family="Helvetica-Light" font-size="36.0" fill="#000000" transform="matrix(1.00, 0.00, -0.00, -1.00, 163.8, 14.0)"> </text><text xml:space="preserve" font-family="Helvetica-Light" font-size="36.0" fill="#000000" transform="matrix(1.00, 0.00, -0.00, -1.00, 173.8, 14.0)">j</text></g></g><g><clipPath id="clip-271"><path d="M 339.4 -3.6 L 378.4 -3.6 L 378.4 57.4 L 339.4 57.4 Z M 339.4 -3.6 "></path></clipPath><g clip-path="url(#clip-271)"><text xml:space="preserve" font-family="Helvetica-Light" font-size="36.0" fill="#000000" transform="matrix(1.00, 0.00, -0.00, -1.00, 349.0, 14.0)">6</text></g></g><g><clipPath id="clip-272"><path d="M 200.7 21.1 L 270.1 21.1 L 270.1 32.7 L 200.7 32.7 Z M 200.7 21.1 "></path></clipPath><g clip-path="url(#clip-272)"><path d="M 0.0 0.0 L 57.8 0.0 L 58.8 0.0 " fill="none" stroke="#000000" stroke-width="2.00" transform="matrix(1.00, 0.00, 0.00, -1.00, 201.7, 26.9)"></path><path d="M 259.5 22.1 L 269.1 26.9 L 259.5 31.7 Z M 259.5 22.1 " fill="#000000"></path></g></g><g><clipPath id="clip-273"><path d="M 0.7 21.1 L 70.1 21.1 L 70.1 32.7 L 0.7 32.7 Z M 0.7 21.1 "></path></clipPath><g clip-path="url(#clip-273)"><path d="M 0.0 0.0 L 57.8 0.0 L 58.8 0.0 " fill="none" stroke="#000000" stroke-width="2.00" transform="matrix(1.00, 0.00, 0.00, -1.00, 1.7, 26.9)"></path><path d="M 59.5 22.1 L 69.1 26.9 L 59.5 31.7 Z M 59.5 22.1 " fill="#000000"></path></g></g></g></svg>