<?xml version="1.0" encoding="UTF-8" standalone="no"?><svg xmlns="http://www.w3.org/2000/svg" xmlns:xlink="http://www.w3.org/1999/xlink" clip-rule="evenodd" stroke-miterlimit="4.00" viewBox="0 0 291 35"><desc>SVG generated by Keynote</desc><defs></defs><g transform="matrix(1.00, 0.00, -0.00, -1.00, 0.0, 35.0)"><g><clipPath id="clip-256"><path d="M 0.5 0.4 L 80.3 0.4 L 80.3 34.5 L 0.5 34.5 Z M 0.5 0.4 "></path></clipPath><g clip-path="url(#clip-256)"><image xlink:href="A9FE02D1C59F2751209EF9487D9FEA60.png" width="78.00" height="32.00" transform="matrix(1.00, 0.00, -0.00, -1.00, 1.5, 33.5)" opacity="0.50"></image><path d="M 17.5 32.0 L 63.3 32.0 C 63.7 32.0 65.4 32.0 67.0 31.8 C 71.4 31.1 74.9 27.6 75.6 23.2 C 75.8 21.6 75.8 19.9 75.8 19.5 C 75.8 19.1 75.8 17.4 75.6 15.8 C 74.9 11.3 71.4 7.8 67.0 7.2 C 65.4 6.9 63.7 6.9 63.3 6.9 L 17.5 6.9 C 17.1 6.9 15.4 6.9 13.8 7.2 C 9.4 7.8 5.9 11.3 5.2 15.8 C 5.0 17.4 5.0 19.1 5.0 19.5 C 5.0 19.9 5.0 21.6 5.2 23.2 C 5.9 27.6 9.4 31.1 13.8 31.8 C 15.4 32.0 17.1 32.0 17.5 32.0 Z M 17.5 32.0 " fill="#51A7F9"></path><path d="M 12.5 0.0 L 58.3 0.0 C 58.7 0.0 60.4 0.0 62.0 0.2 C 66.4 0.9 69.9 4.4 70.6 8.8 C 70.8 10.4 70.8 12.1 70.8 12.5 C 70.8 12.9 70.8 14.6 70.6 16.2 C 69.9 20.7 66.4 24.2 62.0 24.8 C 60.4 25.1 58.7 25.1 58.3 25.1 L 12.5 25.1 C 12.1 25.1 10.4 25.1 8.8 24.8 C 4.4 24.2 0.9 20.7 0.2 16.2 C 0.0 14.6 0.0 12.9 0.0 12.5 C 0.0 12.1 0.0 10.4 0.2 8.8 C 0.9 4.4 4.4 0.9 8.8 0.2 C 10.4 0.0 12.1 0.0 12.5 0.0 Z M 12.5 0.0 " fill="none" stroke="#000000" stroke-width="1.10" transform="matrix(1.00, 0.00, 0.00, -1.00, 5.0, 32.0)"></path></g></g><g><clipPath id="clip-257"><path d="M 70.5 0.4 L 150.3 0.4 L 150.3 34.5 L 70.5 34.5 Z M 70.5 0.4 "></path></clipPath><g clip-path="url(#clip-257)"><image xlink:href="../../71CAB796-784E-42A9-9B8C-A5157C98130C/assets/A9FE02D1C59F2751209EF9487D9FEA60.png" width="78.00" height="32.00" transform="matrix(1.00, 0.00, -0.00, -1.00, 71.5, 33.5)" opacity="0.50"></image><path d="M 87.5 32.0 L 133.3 32.0 C 133.7 32.0 135.4 32.0 137.0 31.8 C 141.4 31.1 144.9 27.6 145.6 23.2 C 145.8 21.6 145.8 19.9 145.8 19.5 C 145.8 19.1 145.8 17.4 145.6 15.8 C 144.9 11.3 141.4 7.8 137.0 7.2 C 135.4 6.9 133.7 6.9 133.3 6.9 L 87.5 6.9 C 87.1 6.9 85.4 6.9 83.8 7.2 C 79.4 7.8 75.9 11.3 75.2 15.8 C 75.0 17.4 75.0 19.1 75.0 19.5 C 75.0 19.9 75.0 21.6 75.2 23.2 C 75.9 27.6 79.4 31.1 83.8 31.8 C 85.4 32.0 87.1 32.0 87.5 32.0 Z M 87.5 32.0 " fill="#51A7F9"></path><path d="M 12.5 0.0 L 58.3 0.0 C 58.7 0.0 60.4 0.0 62.0 0.2 C 66.4 0.9 69.9 4.4 70.6 8.8 C 70.8 10.4 70.8 12.1 70.8 12.5 C 70.8 12.9 70.8 14.6 70.6 16.2 C 69.9 20.7 66.4 24.2 62.0 24.8 C 60.4 25.1 58.7 25.1 58.3 25.1 L 12.5 25.1 C 12.1 25.1 10.4 25.1 8.8 24.8 C 4.4 24.2 0.9 20.7 0.2 16.2 C 0.0 14.6 0.0 12.9 0.0 12.5 C 0.0 12.1 0.0 10.4 0.2 8.8 C 0.9 4.4 4.4 0.9 8.8 0.2 C 10.4 0.0 12.1 0.0 12.5 0.0 Z M 12.5 0.0 " fill="none" stroke="#000000" stroke-width="1.10" transform="matrix(1.00, 0.00, 0.00, -1.00, 75.0, 32.0)"></path></g></g><g><clipPath id="clip-258"><path d="M 140.5 0.4 L 220.3 0.4 L 220.3 34.5 L 140.5 34.5 Z M 140.5 0.4 "></path></clipPath><g clip-path="url(#clip-258)"><image xlink:href="../../71CAB796-784E-42A9-9B8C-A5157C98130C/assets/A9FE02D1C59F2751209EF9487D9FEA60.png" width="78.00" height="32.00" transform="matrix(1.00, 0.00, -0.00, -1.00, 141.5, 33.5)" opacity="0.50"></image><path d="M 157.5 32.0 L 203.3 32.0 C 203.7 32.0 205.4 32.0 207.0 31.8 C 211.4 31.1 214.9 27.6 215.6 23.2 C 215.8 21.6 215.8 19.9 215.8 19.5 C 215.8 19.1 215.8 17.4 215.6 15.8 C 214.9 11.3 211.4 7.8 207.0 7.2 C 205.4 6.9 203.7 6.9 203.3 6.9 L 157.5 6.9 C 157.1 6.9 155.4 6.9 153.8 7.2 C 149.4 7.8 145.9 11.3 145.2 15.8 C 145.0 17.4 145.0 19.1 145.0 19.5 C 145.0 19.9 145.0 21.6 145.2 23.2 C 145.9 27.6 149.4 31.1 153.8 31.8 C 155.4 32.0 157.1 32.0 157.5 32.0 Z M 157.5 32.0 " fill="#51A7F9"></path><path d="M 12.5 0.0 L 58.3 0.0 C 58.7 0.0 60.4 0.0 62.0 0.2 C 66.4 0.9 69.9 4.4 70.6 8.8 C 70.8 10.4 70.8 12.1 70.8 12.5 C 70.8 12.9 70.8 14.6 70.6 16.2 C 69.9 20.7 66.4 24.2 62.0 24.8 C 60.4 25.1 58.7 25.1 58.3 25.1 L 12.5 25.1 C 12.1 25.1 10.4 25.1 8.8 24.8 C 4.4 24.2 0.9 20.7 0.2 16.2 C 0.0 14.6 0.0 12.9 0.0 12.5 C 0.0 12.1 0.0 10.4 0.2 8.8 C 0.9 4.4 4.4 0.9 8.8 0.2 C 10.4 0.0 12.1 0.0 12.5 0.0 Z M 12.5 0.0 " fill="none" stroke="#000000" stroke-width="1.10" transform="matrix(1.00, 0.00, 0.00, -1.00, 145.0, 32.0)"></path></g></g><g><clipPath id="clip-259"><path d="M 210.5 0.4 L 290.3 0.4 L 290.3 34.5 L 210.5 34.5 Z M 210.5 0.4 "></path></clipPath><g clip-path="url(#clip-259)"><image xlink:href="../../71CAB796-784E-42A9-9B8C-A5157C98130C/assets/A9FE02D1C59F2751209EF9487D9FEA60.png" width="78.00" height="32.00" transform="matrix(1.00, 0.00, -0.00, -1.00, 211.5, 33.5)" opacity="0.50"></image><path d="M 227.5 32.0 L 273.3 32.0 C 273.7 32.0 275.4 32.0 277.0 31.8 C 281.4 31.1 284.9 27.6 285.6 23.2 C 285.8 21.6 285.8 19.9 285.8 19.5 C 285.8 19.1 285.8 17.4 285.6 15.8 C 284.9 11.3 281.4 7.8 277.0 7.2 C 275.4 6.9 273.7 6.9 273.3 6.9 L 227.5 6.9 C 227.1 6.9 225.4 6.9 223.8 7.2 C 219.4 7.8 215.9 11.3 215.2 15.8 C 215.0 17.4 215.0 19.1 215.0 19.5 C 215.0 19.9 215.0 21.6 215.2 23.2 C 215.9 27.6 219.4 31.1 223.8 31.8 C 225.4 32.0 227.1 32.0 227.5 32.0 Z M 227.5 32.0 " fill="#51A7F9"></path><path d="M 12.5 0.0 L 58.3 0.0 C 58.7 0.0 60.4 0.0 62.0 0.2 C 66.4 0.9 69.9 4.4 70.6 8.8 C 70.8 10.4 70.8 12.1 70.8 12.5 C 70.8 12.9 70.8 14.6 70.6 16.2 C 69.9 20.7 66.4 24.2 62.0 24.8 C 60.4 25.1 58.7 25.1 58.3 25.1 L 12.5 25.1 C 12.1 25.1 10.4 25.1 8.8 24.8 C 4.4 24.2 0.9 20.7 0.2 16.2 C 0.0 14.6 0.0 12.9 0.0 12.5 C 0.0 12.1 0.0 10.4 0.2 8.8 C 0.9 4.4 4.4 0.9 8.8 0.2 C 10.4 0.0 12.1 0.0 12.5 0.0 Z M 12.5 0.0 " fill="none" stroke="#000000" stroke-width="1.10" transform="matrix(1.00, 0.00, 0.00, -1.00, 215.0, 32.0)"></path></g></g></g></svg>