<?xml version="1.0" encoding="UTF-8" standalone="no"?><svg xmlns="http://www.w3.org/2000/svg" xmlns:xlink="http://www.w3.org/1999/xlink" clip-rule="evenodd" stroke-miterlimit="4.00" viewBox="0 0 291 35"><desc>SVG generated by Keynote</desc><defs></defs><g transform="matrix(1.00, 0.00, -0.00, -1.00, 0.0, 35.0)"><g><clipPath id="clip-260"><path d="M 0.5 0.9 L 80.3 0.9 L 80.3 34.9 L 0.5 34.9 Z M 0.5 0.9 "></path></clipPath><g clip-path="url(#clip-260)"><image xlink:href="../../71CAB796-784E-42A9-9B8C-A5157C98130C/assets/A9FE02D1C59F2751209EF9487D9FEA60.png" width="78.00" height="32.00" transform="matrix(1.00, 0.00, -0.00, -1.00, 1.5, 33.9)" opacity="0.50"></image><path d="M 17.5 32.4 L 63.3 32.4 C 63.7 32.4 65.4 32.4 67.0 32.2 C 71.4 31.5 74.9 28.1 75.6 23.6 C 75.8 22.0 75.8 20.3 75.8 19.9 C 75.8 19.5 75.8 17.8 75.6 16.2 C 74.9 11.8 71.4 8.3 67.0 7.6 C 65.4 7.4 63.7 7.4 63.3 7.4 L 17.5 7.4 C 17.1 7.4 15.4 7.4 13.8 7.6 C 9.4 8.3 5.9 11.8 5.2 16.2 C 5.0 17.8 5.0 19.5 5.0 19.9 C 5.0 20.3 5.0 22.0 5.2 23.6 C 5.9 28.1 9.4 31.5 13.8 32.2 C 15.4 32.4 17.1 32.4 17.5 32.4 Z M 17.5 32.4 " fill="#51A7F9"></path><path d="M 12.5 0.0 L 58.3 0.0 C 58.7 0.0 60.4 0.0 62.0 0.2 C 66.4 0.9 69.9 4.4 70.6 8.8 C 70.8 10.4 70.8 12.1 70.8 12.5 C 70.8 12.9 70.8 14.6 70.6 16.2 C 69.9 20.7 66.4 24.2 62.0 24.8 C 60.4 25.1 58.7 25.1 58.3 25.1 L 12.5 25.1 C 12.1 25.1 10.4 25.1 8.8 24.8 C 4.4 24.2 0.9 20.7 0.2 16.2 C 0.0 14.6 0.0 12.9 0.0 12.5 C 0.0 12.1 0.0 10.4 0.2 8.8 C 0.9 4.4 4.4 0.9 8.8 0.2 C 10.4 0.0 12.1 0.0 12.5 0.0 Z M 12.5 0.0 " fill="none" stroke="#000000" stroke-width="1.10" transform="matrix(1.00, 0.00, 0.00, -1.00, 5.0, 32.4)"></path></g></g><g><clipPath id="clip-261"><path d="M 70.5 0.9 L 150.3 0.9 L 150.3 34.9 L 70.5 34.9 Z M 70.5 0.9 "></path></clipPath><g clip-path="url(#clip-261)"><image xlink:href="../../71CAB796-784E-42A9-9B8C-A5157C98130C/assets/A9FE02D1C59F2751209EF9487D9FEA60.png" width="78.00" height="32.00" transform="matrix(1.00, 0.00, -0.00, -1.00, 71.5, 33.9)" opacity="0.50"></image><path d="M 87.5 32.4 L 133.3 32.4 C 133.7 32.4 135.4 32.4 137.0 32.2 C 141.4 31.5 144.9 28.1 145.6 23.6 C 145.8 22.0 145.8 20.3 145.8 19.9 C 145.8 19.5 145.8 17.8 145.6 16.2 C 144.9 11.8 141.4 8.3 137.0 7.6 C 135.4 7.4 133.7 7.4 133.3 7.4 L 87.5 7.4 C 87.1 7.4 85.4 7.4 83.8 7.6 C 79.4 8.3 75.9 11.8 75.2 16.2 C 75.0 17.8 75.0 19.5 75.0 19.9 C 75.0 20.3 75.0 22.0 75.2 23.6 C 75.9 28.1 79.4 31.5 83.8 32.2 C 85.4 32.4 87.1 32.4 87.5 32.4 Z M 87.5 32.4 " fill="#51A7F9"></path><path d="M 12.5 0.0 L 58.3 0.0 C 58.7 0.0 60.4 0.0 62.0 0.2 C 66.4 0.9 69.9 4.4 70.6 8.8 C 70.8 10.4 70.8 12.1 70.8 12.5 C 70.8 12.9 70.8 14.6 70.6 16.2 C 69.9 20.7 66.4 24.2 62.0 24.8 C 60.4 25.1 58.7 25.1 58.3 25.1 L 12.5 25.1 C 12.1 25.1 10.4 25.1 8.8 24.8 C 4.4 24.2 0.9 20.7 0.2 16.2 C 0.0 14.6 0.0 12.9 0.0 12.5 C 0.0 12.1 0.0 10.4 0.2 8.8 C 0.9 4.4 4.4 0.9 8.8 0.2 C 10.4 0.0 12.1 0.0 12.5 0.0 Z M 12.5 0.0 " fill="none" stroke="#000000" stroke-width="1.10" transform="matrix(1.00, 0.00, 0.00, -1.00, 75.0, 32.4)"></path></g></g><g><clipPath id="clip-262"><path d="M 140.5 0.9 L 220.3 0.9 L 220.3 34.9 L 140.5 34.9 Z M 140.5 0.9 "></path></clipPath><g clip-path="url(#clip-262)"><image xlink:href="../../71CAB796-784E-42A9-9B8C-A5157C98130C/assets/A9FE02D1C59F2751209EF9487D9FEA60.png" width="78.00" height="32.00" transform="matrix(1.00, 0.00, -0.00, -1.00, 141.5, 33.9)" opacity="0.50"></image><path d="M 157.5 32.4 L 203.3 32.4 C 203.7 32.4 205.4 32.4 207.0 32.2 C 211.4 31.5 214.9 28.1 215.6 23.6 C 215.8 22.0 215.8 20.3 215.8 19.9 C 215.8 19.5 215.8 17.8 215.6 16.2 C 214.9 11.8 211.4 8.3 207.0 7.6 C 205.4 7.4 203.7 7.4 203.3 7.4 L 157.5 7.4 C 157.1 7.4 155.4 7.4 153.8 7.6 C 149.4 8.3 145.9 11.8 145.2 16.2 C 145.0 17.8 145.0 19.5 145.0 19.9 C 145.0 20.3 145.0 22.0 145.2 23.6 C 145.9 28.1 149.4 31.5 153.8 32.2 C 155.4 32.4 157.1 32.4 157.5 32.4 Z M 157.5 32.4 " fill="#51A7F9"></path><path d="M 12.5 0.0 L 58.3 0.0 C 58.7 0.0 60.4 0.0 62.0 0.2 C 66.4 0.9 69.9 4.4 70.6 8.8 C 70.8 10.4 70.8 12.1 70.8 12.5 C 70.8 12.9 70.8 14.6 70.6 16.2 C 69.9 20.7 66.4 24.2 62.0 24.8 C 60.4 25.1 58.7 25.1 58.3 25.1 L 12.5 25.1 C 12.1 25.1 10.4 25.1 8.8 24.8 C 4.4 24.2 0.9 20.7 0.2 16.2 C 0.0 14.6 0.0 12.9 0.0 12.5 C 0.0 12.1 0.0 10.4 0.2 8.8 C 0.9 4.4 4.4 0.9 8.8 0.2 C 10.4 0.0 12.1 0.0 12.5 0.0 Z M 12.5 0.0 " fill="none" stroke="#000000" stroke-width="1.10" transform="matrix(1.00, 0.00, 0.00, -1.00, 145.0, 32.4)"></path></g></g><g><clipPath id="clip-263"><path d="M 210.5 0.9 L 290.3 0.9 L 290.3 34.9 L 210.5 34.9 Z M 210.5 0.9 "></path></clipPath><g clip-path="url(#clip-263)"><image xlink:href="../../71CAB796-784E-42A9-9B8C-A5157C98130C/assets/A9FE02D1C59F2751209EF9487D9FEA60.png" width="78.00" height="32.00" transform="matrix(1.00, 0.00, -0.00, -1.00, 211.5, 33.9)" opacity="0.50"></image><path d="M 227.5 32.4 L 273.3 32.4 C 273.7 32.4 275.4 32.4 277.0 32.2 C 281.4 31.5 284.9 28.1 285.6 23.6 C 285.8 22.0 285.8 20.3 285.8 19.9 C 285.8 19.5 285.8 17.8 285.6 16.2 C 284.9 11.8 281.4 8.3 277.0 7.6 C 275.4 7.4 273.7 7.4 273.3 7.4 L 227.5 7.4 C 227.1 7.4 225.4 7.4 223.8 7.6 C 219.4 8.3 215.9 11.8 215.2 16.2 C 215.0 17.8 215.0 19.5 215.0 19.9 C 215.0 20.3 215.0 22.0 215.2 23.6 C 215.9 28.1 219.4 31.5 223.8 32.2 C 225.4 32.4 227.1 32.4 227.5 32.4 Z M 227.5 32.4 " fill="#51A7F9"></path><path d="M 12.5 0.0 L 58.3 0.0 C 58.7 0.0 60.4 0.0 62.0 0.2 C 66.4 0.9 69.9 4.4 70.6 8.8 C 70.8 10.4 70.8 12.1 70.8 12.5 C 70.8 12.9 70.8 14.6 70.6 16.2 C 69.9 20.7 66.4 24.2 62.0 24.8 C 60.4 25.1 58.7 25.1 58.3 25.1 L 12.5 25.1 C 12.1 25.1 10.4 25.1 8.8 24.8 C 4.4 24.2 0.9 20.7 0.2 16.2 C 0.0 14.6 0.0 12.9 0.0 12.5 C 0.0 12.1 0.0 10.4 0.2 8.8 C 0.9 4.4 4.4 0.9 8.8 0.2 C 10.4 0.0 12.1 0.0 12.5 0.0 Z M 12.5 0.0 " fill="none" stroke="#000000" stroke-width="1.10" transform="matrix(1.00, 0.00, 0.00, -1.00, 215.0, 32.4)"></path></g></g></g></svg>