<?xml version="1.0" encoding="UTF-8" standalone="no"?><svg xmlns="http://www.w3.org/2000/svg" xmlns:xlink="http://www.w3.org/1999/xlink" clip-rule="evenodd" stroke-miterlimit="4.00" viewBox="0 0 1865 159"><desc>SVG generated by Keynote</desc><defs></defs><g transform="matrix(1.00, 0.00, -0.00, -1.00, 0.0, 159.0)"><image xlink:href="001524F291A5B0BC901BA0FB8CD19AEF.png" width="1862.00" height="152.00" transform="matrix(1.00, 0.00, -0.00, -1.00, 1.6, 154.0)"></image><path d="M 38.2 153.0 L 1827.1 153.0 C 1836.7 153.0 1841.6 153.0 1846.8 151.4 C 1852.5 149.3 1856.9 144.8 1859.0 139.2 C 1860.6 134.0 1860.6 129.1 1860.6 119.3 L 1860.6 40.3 C 1860.6 30.7 1860.6 25.8 1859.0 20.6 C 1856.9 15.0 1852.5 10.5 1846.8 8.4 C 1841.6 6.8 1836.7 6.8 1827.0 6.8 L 38.2 6.8 C 28.5 6.8 23.7 6.8 18.5 8.4 C 12.8 10.5 8.3 15.0 6.3 20.6 C 4.6 25.8 4.6 30.7 4.6 40.5 L 4.6 119.5 C 4.6 129.1 4.6 134.0 6.3 139.2 C 8.3 144.8 12.8 149.3 18.5 151.4 C 23.7 153.0 28.5 153.0 38.3 153.0 Z M 38.2 153.0 " fill="#EB5C56"></path></g></svg>