<?xml version="1.0" encoding="UTF-8" standalone="no"?><svg xmlns="http://www.w3.org/2000/svg" xmlns:xlink="http://www.w3.org/1999/xlink" clip-rule="evenodd" stroke-miterlimit="4.00" viewBox="0 0 681 47"><desc>SVG generated by Keynote</desc><defs></defs><g transform="matrix(1.00, 0.00, -0.00, -1.00, 0.0, 47.0)"><text xml:space="preserve" font-family="Courier" font-size="50.0" fill="#000000" transform="matrix(1.00, 0.00, -0.00, -1.00, -1.0, 12.0)">r</text><text xml:space="preserve" font-family="Courier" font-size="50.0" fill="#000000" transform="matrix(1.00, 0.00, -0.00, -1.00, 29.0, 12.0)">a</text><text xml:space="preserve" font-family="Courier" font-size="50.0" fill="#000000" transform="matrix(1.00, 0.00, -0.00, -1.00, 59.0, 12.0)">i</text><text xml:space="preserve" font-family="Courier" font-size="50.0" fill="#000000" transform="matrix(1.00, 0.00, -0.00, -1.00, 89.0, 12.0)">s</text><text xml:space="preserve" font-family="Courier" font-size="50.0" fill="#000000" transform="matrix(1.00, 0.00, -0.00, -1.00, 119.0, 12.0)">e</text><text xml:space="preserve" font-family="Courier" font-size="50.0" fill="#000000" transform="matrix(1.00, 0.00, -0.00, -1.00, 149.0, 12.0)"> </text><text xml:space="preserve" font-family="Courier" font-size="50.0" fill="#000000" transform="matrix(1.00, 0.00, -0.00, -1.00, 179.1, 12.0)">S</text><text xml:space="preserve" font-family="Courier" font-size="50.0" fill="#000000" transform="matrix(1.00, 0.00, -0.00, -1.00, 209.1, 12.0)">t</text><text xml:space="preserve" font-family="Courier" font-size="50.0" fill="#000000" transform="matrix(1.00, 0.00, -0.00, -1.00, 239.1, 12.0)">o</text><text xml:space="preserve" font-family="Courier" font-size="50.0" fill="#000000" transform="matrix(1.00, 0.00, -0.00, -1.00, 269.1, 12.0)">p</text><text xml:space="preserve" font-family="Courier" font-size="50.0" fill="#000000" transform="matrix(1.00, 0.00, -0.00, -1.00, 299.1, 12.0)">I</text><text xml:space="preserve" font-family="Courier" font-size="50.0" fill="#000000" transform="matrix(1.00, 0.00, -0.00, -1.00, 329.1, 12.0)">t</text><text xml:space="preserve" font-family="Courier" font-size="50.0" fill="#000000" transform="matrix(1.00, 0.00, -0.00, -1.00, 359.1, 12.0)">e</text><text xml:space="preserve" font-family="Courier" font-size="50.0" fill="#000000" transform="matrix(1.00, 0.00, -0.00, -1.00, 389.1, 12.0)">r</text><text xml:space="preserve" font-family="Courier" font-size="50.0" fill="#000000" transform="matrix(1.00, 0.00, -0.00, -1.00, 419.1, 12.0)">a</text><text xml:space="preserve" font-family="Courier" font-size="50.0" fill="#000000" transform="matrix(1.00, 0.00, -0.00, -1.00, 449.1, 12.0)">t</text><text xml:space="preserve" font-family="Courier" font-size="50.0" fill="#000000" transform="matrix(1.00, 0.00, -0.00, -1.00, 479.2, 12.0)">i</text><text xml:space="preserve" font-family="Courier" font-size="50.0" fill="#000000" transform="matrix(1.00, 0.00, -0.00, -1.00, 509.2, 12.0)">o</text><text xml:space="preserve" font-family="Courier" font-size="50.0" fill="#000000" transform="matrix(1.00, 0.00, -0.00, -1.00, 539.2, 12.0)">n</text><text xml:space="preserve" font-family="Courier" font-size="50.0" fill="#000000" transform="matrix(1.00, 0.00, -0.00, -1.00, 569.2, 12.0)"> </text><text xml:space="preserve" font-family="Courier" font-size="50.0" fill="#000000" transform="matrix(1.00, 0.00, -0.00, -1.00, 599.2, 12.0)">(</text><text xml:space="preserve" font-family="Courier" font-size="50.0" fill="#000000" transform="matrix(1.00, 0.00, -0.00, -1.00, 629.2, 12.0)">4</text><text xml:space="preserve" font-family="Courier" font-size="50.0" fill="#000000" transform="matrix(1.00, 0.00, -0.00, -1.00, 659.2, 12.0)">)</text></g></svg>