<?xml version="1.0" encoding="UTF-8" standalone="no"?><svg xmlns="http://www.w3.org/2000/svg" xmlns:xlink="http://www.w3.org/1999/xlink" clip-rule="evenodd" stroke-miterlimit="4.00" viewBox="0 0 355 45"><desc>SVG generated by Keynote</desc><defs></defs><g transform="matrix(1.00, 0.00, -0.00, -1.00, 0.0, 45.0)"><text xml:space="preserve" font-family="Courier" font-size="50.0" fill="#000000" transform="matrix(1.00, 0.00, -0.00, -1.00, -1.0, 12.0)">r</text><text xml:space="preserve" font-family="Courier" font-size="50.0" fill="#000000" transform="matrix(1.00, 0.00, -0.00, -1.00, 29.0, 12.0)">e</text><text xml:space="preserve" font-family="Courier" font-size="50.0" fill="#000000" transform="matrix(1.00, 0.00, -0.00, -1.00, 59.0, 12.0)">t</text><text xml:space="preserve" font-family="Courier" font-size="50.0" fill="#000000" transform="matrix(1.00, 0.00, -0.00, -1.00, 89.0, 12.0)">u</text><text xml:space="preserve" font-family="Courier" font-size="50.0" fill="#000000" transform="matrix(1.00, 0.00, -0.00, -1.00, 119.0, 12.0)">r</text><text xml:space="preserve" font-family="Courier" font-size="50.0" fill="#000000" transform="matrix(1.00, 0.00, -0.00, -1.00, 149.0, 12.0)">n</text><text xml:space="preserve" font-family="Courier" font-size="50.0" fill="#000000" transform="matrix(1.00, 0.00, -0.00, -1.00, 179.1, 12.0)"> </text><text xml:space="preserve" font-family="Courier" font-size="50.0" fill="#000000" transform="matrix(1.00, 0.00, -0.00, -1.00, 209.1, 12.0)">“</text><text xml:space="preserve" font-family="Courier" font-size="50.0" fill="#000000" transform="matrix(1.00, 0.00, -0.00, -1.00, 239.1, 12.0)">y</text><text xml:space="preserve" font-family="Courier" font-size="50.0" fill="#000000" transform="matrix(1.00, 0.00, -0.00, -1.00, 269.1, 12.0)"> </text><text xml:space="preserve" font-family="Courier" font-size="50.0" fill="#000000" transform="matrix(1.00, 0.00, -0.00, -1.00, 299.1, 12.0)">2</text><text xml:space="preserve" font-family="Courier" font-size="50.0" fill="#000000" transform="matrix(1.00, 0.00, -0.00, -1.00, 329.1, 12.0)">”</text></g></svg>