<?xml version="1.0" encoding="UTF-8" standalone="no"?><svg xmlns="http://www.w3.org/2000/svg" xmlns:xlink="http://www.w3.org/1999/xlink" clip-rule="evenodd" stroke-miterlimit="4.00" viewBox="0 0 405 107"><desc>SVG generated by Keynote</desc><defs></defs><g transform="matrix(1.00, 0.00, -0.00, -1.00, 0.0, 107.0)"><g><clipPath id="clip-57"><path d="M 0.2 1.0 L 404.5 1.0 L 404.5 106.8 L 0.2 106.8 Z M 0.2 1.0 "></path></clipPath><g clip-path="url(#clip-57)"><image xlink:href="D4DD5CDF9C64D60FE2FB77D2145DBC48.png" width="402.00" height="104.00" transform="matrix(1.00, 0.00, -0.00, -1.00, 1.2, 105.8)" opacity="0.50"></image><path d="M 0.0 0.0 L 391.3 0.0 L 391.3 92.9 L 0.0 92.9 Z M 0.0 0.0 " fill="none" stroke="#000000" stroke-width="5.00" transform="matrix(1.00, 0.00, 0.00, -1.00, 6.7, 102.3)"></path></g></g><g><clipPath id="clip-58"><path d="M 38.2 16.1 L 119.1 16.1 L 119.1 95.6 L 38.2 95.6 Z M 38.2 16.1 "></path></clipPath><g clip-path="url(#clip-58)"><text xml:space="preserve" font-family="Courier" font-size="47.0" fill="#000000" transform="matrix(1.00, 0.00, -0.00, -1.00, 50.0, 39.0)">w</text><text xml:space="preserve" font-family="Courier" font-size="47.0" fill="#000000" transform="matrix(1.00, 0.00, -0.00, -1.00, 78.2, 39.0)">4</text></g></g></g></svg>