<?xml version="1.0" encoding="UTF-8" standalone="no"?><svg xmlns="http://www.w3.org/2000/svg" xmlns:xlink="http://www.w3.org/1999/xlink" clip-rule="evenodd" stroke-miterlimit="4.00" viewBox="0 0 376 51"><desc>SVG generated by Keynote</desc><defs></defs><g transform="matrix(1.00, 0.00, -0.00, -1.00, 0.0, 51.0)"><text xml:space="preserve" font-family="Helvetica-Light" font-size="50.0" fill="#000000" transform="matrix(1.00, 0.00, -0.00, -1.00, -1.0, 12.0)">d</text><text xml:space="preserve" font-family="Helvetica-Light" font-size="50.0" fill="#000000" transform="matrix(1.00, 0.00, -0.00, -1.00, 29.6, 12.0)">e</text><text xml:space="preserve" font-family="Helvetica-Light" font-size="50.0" fill="#000000" transform="matrix(1.00, 0.00, -0.00, -1.00, 57.4, 12.0)">u</text><text xml:space="preserve" font-family="Helvetica-Light" font-size="50.0" fill="#000000" transform="matrix(1.00, 0.00, -0.00, -1.00, 85.2, 12.0)">x</text><text xml:space="preserve" font-family="Helvetica-Light" font-size="50.0" fill="#000000" transform="matrix(1.00, 0.00, -0.00, -1.00, 110.2, 12.0)">i</text><text xml:space="preserve" font-family="Helvetica-Light" font-size="50.0" fill="#000000" transform="matrix(1.00, 0.00, -0.00, -1.00, 121.2, 12.0)">è</text><text xml:space="preserve" font-family="Helvetica-Light" font-size="50.0" fill="#000000" transform="matrix(1.00, 0.00, -0.00, -1.00, 149.1, 12.0)">m</text><text xml:space="preserve" font-family="Helvetica-Light" font-size="50.0" fill="#000000" transform="matrix(1.00, 0.00, -0.00, -1.00, 190.7, 12.0)">e</text><text xml:space="preserve" font-family="Helvetica-Light" font-size="50.0" fill="#000000" transform="matrix(1.00, 0.00, -0.00, -1.00, 218.5, 12.0)"> </text><text xml:space="preserve" font-family="Helvetica-Light" font-size="50.0" fill="#000000" transform="matrix(1.00, 0.00, -0.00, -1.00, 232.4, 12.0)">s</text><text xml:space="preserve" font-family="Helvetica-Light" font-size="50.0" fill="#000000" transform="matrix(1.00, 0.00, -0.00, -1.00, 257.4, 12.0)">e</text><text xml:space="preserve" font-family="Helvetica-Light" font-size="50.0" fill="#000000" transform="matrix(1.00, 0.00, -0.00, -1.00, 285.2, 12.0)">n</text><text xml:space="preserve" font-family="Helvetica-Light" font-size="50.0" fill="#000000" transform="matrix(1.00, 0.00, -0.00, -1.00, 313.0, 12.0)">d</text><text xml:space="preserve" font-family="Helvetica-Light" font-size="50.0" fill="#000000" transform="matrix(1.00, 0.00, -0.00, -1.00, 343.6, 12.0)">(</text><text xml:space="preserve" font-family="Helvetica-Light" font-size="50.0" fill="#000000" transform="matrix(1.00, 0.00, -0.00, -1.00, 360.2, 12.0)">)</text></g></svg>