<?xml version="1.0" encoding="UTF-8" standalone="no"?><svg xmlns="http://www.w3.org/2000/svg" xmlns:xlink="http://www.w3.org/1999/xlink" clip-rule="evenodd" stroke-miterlimit="4.00" viewBox="0 0 516 160"><desc>SVG generated by Keynote</desc><defs></defs><g transform="matrix(1.00, 0.00, -0.00, -1.00, 0.0, 160.0)"><g><clipPath id="clip-32"><path d="M 448.3 108.5 L 518.7 108.5 L 518.7 162.5 L 448.3 162.5 Z M 448.3 108.5 "></path></clipPath><g clip-path="url(#clip-32)"><text xml:space="preserve" font-family="Helvetica-Light" font-size="32.0" fill="#000000" transform="matrix(1.00, 0.00, -0.00, -1.00, 457.0, 124.0)">6</text><text xml:space="preserve" font-family="Helvetica-Light" font-size="32.0" fill="#000000" transform="matrix(1.00, 0.00, -0.00, -1.00, 474.8, 124.0)">0</text><text xml:space="preserve" font-family="Helvetica-Light" font-size="32.0" fill="#000000" transform="matrix(1.00, 0.00, -0.00, -1.00, 492.6, 124.0)">0</text></g></g><g><clipPath id="clip-33"><path d="M 0.8 0.1 L 487.6 0.1 L 487.6 111.6 L 0.8 111.6 Z M 0.8 0.1 "></path></clipPath><g clip-path="url(#clip-33)"><path d="M 0.0 97.2 C 73.2 98.9 145.3 101.8 216.8 105.5 C 283.5 108.9 351.9 113.3 417.6 93.3 C 428.6 90.0 439.4 86.0 449.6 80.6 C 458.3 76.0 466.5 70.4 474.0 63.9 C 477.2 53.0 479.7 42.0 481.4 30.7 C 482.9 20.5 483.7 10.3 483.8 0.0 " fill="none" stroke="#A6AAA8" stroke-width="2.00" stroke-dasharray="4.0, 4.0" transform="matrix(1.00, 0.00, 0.00, -1.00, 1.8, 110.6)"></path></g></g></g></svg>