<?xml version="1.0" encoding="UTF-8" standalone="no"?><svg xmlns="http://www.w3.org/2000/svg" xmlns:xlink="http://www.w3.org/1999/xlink" clip-rule="evenodd" stroke-miterlimit="4.00" viewBox="0 0 1195 110"><desc>SVG generated by Keynote</desc><defs></defs><g transform="matrix(1.00, 0.00, -0.00, -1.00, 0.0, 110.0)"><g><clipPath id="clip-536"><path d="M 0.3 1.0 L 108.9 1.0 L 108.9 45.3 L 0.3 45.3 Z M 0.3 1.0 "></path></clipPath><g clip-path="url(#clip-536)"><image xlink:href="74A6BA13847DCC18ECBBD643F9CEC464.png" width="107.00" height="42.00" transform="matrix(1.00, 0.00, -0.00, -1.01, 1.3, 44.3)" opacity="0.50"></image><path d="M 22.4 42.8 L 86.8 42.8 C 87.4 42.8 89.7 42.8 92.0 42.5 C 98.3 41.5 103.2 36.6 104.1 30.4 C 104.4 28.1 104.4 25.7 104.4 25.2 C 104.4 24.6 104.4 22.2 104.1 19.9 C 103.2 13.7 98.3 8.8 92.0 7.8 C 89.7 7.5 87.4 7.5 86.8 7.5 L 22.4 7.5 C 21.8 7.5 19.5 7.5 17.2 7.8 C 11.0 8.8 6.1 13.7 5.1 19.9 C 4.8 22.2 4.8 24.6 4.8 25.2 C 4.8 25.7 4.8 28.1 5.1 30.4 C 6.1 36.6 11.0 41.5 17.2 42.5 C 19.5 42.8 21.8 42.8 22.4 42.8 Z M 22.4 42.8 " fill="#51A7F9"></path><path d="M 17.6 0.0 L 82.0 0.0 C 82.6 0.0 84.9 0.0 87.2 0.3 C 93.4 1.3 98.3 6.2 99.3 12.4 C 99.6 14.7 99.6 17.0 99.6 17.6 C 99.6 18.2 99.6 20.5 99.3 22.8 C 98.3 29.1 93.4 34.0 87.2 34.9 C 84.9 35.2 82.6 35.2 82.0 35.2 L 17.6 35.2 C 17.0 35.2 14.7 35.2 12.4 34.9 C 6.2 34.0 1.3 29.1 0.3 22.8 C 0.0 20.5 0.0 18.2 0.0 17.6 C 0.0 17.0 0.0 14.7 0.3 12.4 C 1.3 6.2 6.2 1.3 12.4 0.3 C 14.7 0.0 17.0 0.0 17.6 0.0 Z M 17.6 0.0 " fill="none" stroke="#000000" stroke-width="1.10" transform="matrix(1.00, 0.00, 0.00, -1.00, 4.8, 42.8)"></path></g></g><g><clipPath id="clip-537"><path d="M 98.8 1.0 L 207.4 1.0 L 207.4 45.3 L 98.8 45.3 Z M 98.8 1.0 "></path></clipPath><g clip-path="url(#clip-537)"><image xlink:href="../../3A383725-9A45-4955-BFDA-A423E87DD194/assets/74A6BA13847DCC18ECBBD643F9CEC464.png" width="107.00" height="42.00" transform="matrix(1.00, 0.00, -0.00, -1.01, 99.8, 44.3)" opacity="0.50"></image><path d="M 120.9 42.8 L 185.2 42.8 C 185.8 42.8 188.2 42.8 190.5 42.5 C 196.7 41.5 201.6 36.6 202.6 30.4 C 202.9 28.1 202.9 25.7 202.9 25.2 C 202.9 24.6 202.9 22.2 202.6 19.9 C 201.6 13.7 196.7 8.8 190.5 7.8 C 188.2 7.5 185.8 7.5 185.2 7.5 L 120.9 7.5 C 120.3 7.5 117.9 7.5 115.6 7.8 C 109.4 8.8 104.5 13.7 103.5 19.9 C 103.2 22.2 103.2 24.6 103.2 25.2 C 103.2 25.7 103.2 28.1 103.5 30.4 C 104.5 36.6 109.4 41.5 115.6 42.5 C 117.9 42.8 120.3 42.8 120.9 42.8 Z M 120.9 42.8 " fill="#51A7F9"></path><path d="M 17.6 0.0 L 82.0 0.0 C 82.6 0.0 84.9 0.0 87.2 0.3 C 93.4 1.3 98.3 6.2 99.3 12.4 C 99.6 14.7 99.6 17.0 99.6 17.6 C 99.6 18.2 99.6 20.5 99.3 22.8 C 98.3 29.1 93.4 34.0 87.2 34.9 C 84.9 35.2 82.6 35.2 82.0 35.2 L 17.6 35.2 C 17.0 35.2 14.7 35.2 12.4 34.9 C 6.2 34.0 1.3 29.1 0.3 22.8 C 0.0 20.5 0.0 18.2 0.0 17.6 C 0.0 17.0 0.0 14.7 0.3 12.4 C 1.3 6.2 6.2 1.3 12.4 0.3 C 14.7 0.0 17.0 0.0 17.6 0.0 Z M 17.6 0.0 " fill="none" stroke="#000000" stroke-width="1.10" transform="matrix(1.00, 0.00, 0.00, -1.00, 103.2, 42.8)"></path></g></g><g><clipPath id="clip-538"><path d="M 197.2 1.0 L 305.8 1.0 L 305.8 45.3 L 197.2 45.3 Z M 197.2 1.0 "></path></clipPath><g clip-path="url(#clip-538)"><image xlink:href="../../3A383725-9A45-4955-BFDA-A423E87DD194/assets/74A6BA13847DCC18ECBBD643F9CEC464.png" width="107.00" height="42.00" transform="matrix(1.00, 0.00, -0.00, -1.01, 198.2, 44.3)" opacity="0.50"></image><path d="M 219.3 42.8 L 283.7 42.8 C 284.3 42.8 286.6 42.8 288.9 42.5 C 295.1 41.5 300.0 36.6 301.0 30.4 C 301.3 28.1 301.3 25.7 301.3 25.2 C 301.3 24.6 301.3 22.2 301.0 19.9 C 300.0 13.7 295.1 8.8 288.9 7.8 C 286.6 7.5 284.3 7.5 283.7 7.5 L 219.3 7.5 C 218.7 7.5 216.4 7.5 214.1 7.8 C 207.8 8.8 202.9 13.7 202.0 19.9 C 201.7 22.2 201.7 24.6 201.7 25.2 C 201.7 25.7 201.7 28.1 202.0 30.4 C 202.9 36.6 207.8 41.5 214.1 42.5 C 216.4 42.8 218.7 42.8 219.3 42.8 Z M 219.3 42.8 " fill="#51A7F9"></path><path d="M 17.6 0.0 L 82.0 0.0 C 82.6 0.0 84.9 0.0 87.2 0.3 C 93.4 1.3 98.3 6.2 99.3 12.4 C 99.6 14.7 99.6 17.0 99.6 17.6 C 99.6 18.2 99.6 20.5 99.3 22.8 C 98.3 29.1 93.4 34.0 87.2 34.9 C 84.9 35.2 82.6 35.2 82.0 35.2 L 17.6 35.2 C 17.0 35.2 14.7 35.2 12.4 34.9 C 6.2 34.0 1.3 29.1 0.3 22.8 C 0.0 20.5 0.0 18.2 0.0 17.6 C 0.0 17.0 0.0 14.7 0.3 12.4 C 1.3 6.2 6.2 1.3 12.4 0.3 C 14.7 0.0 17.0 0.0 17.6 0.0 Z M 17.6 0.0 " fill="none" stroke="#000000" stroke-width="1.10" transform="matrix(1.00, 0.00, 0.00, -1.00, 201.7, 42.8)"></path></g></g><g><clipPath id="clip-539"><path d="M 295.6 1.0 L 404.2 1.0 L 404.2 45.3 L 295.6 45.3 Z M 295.6 1.0 "></path></clipPath><g clip-path="url(#clip-539)"><image xlink:href="../../3A383725-9A45-4955-BFDA-A423E87DD194/assets/74A6BA13847DCC18ECBBD643F9CEC464.png" width="107.00" height="42.00" transform="matrix(1.00, 0.00, -0.00, -1.01, 296.6, 44.3)" opacity="0.50"></image><path d="M 317.7 42.8 L 382.1 42.8 C 382.7 42.8 385.0 42.8 387.3 42.5 C 393.6 41.5 398.5 36.6 399.4 30.4 C 399.7 28.1 399.7 25.7 399.7 25.2 C 399.7 24.6 399.7 22.2 399.4 19.9 C 398.5 13.7 393.6 8.8 387.3 7.8 C 385.0 7.5 382.7 7.5 382.1 7.5 L 317.7 7.5 C 317.2 7.5 314.8 7.5 312.5 7.8 C 306.3 8.8 301.4 13.7 300.4 19.9 C 300.1 22.2 300.1 24.6 300.1 25.2 C 300.1 25.7 300.1 28.1 300.4 30.4 C 301.4 36.6 306.3 41.5 312.5 42.5 C 314.8 42.8 317.2 42.8 317.7 42.8 Z M 317.7 42.8 " fill="#51A7F9"></path><path d="M 17.6 0.0 L 82.0 0.0 C 82.6 0.0 84.9 0.0 87.2 0.3 C 93.4 1.3 98.3 6.2 99.3 12.4 C 99.6 14.7 99.6 17.0 99.6 17.6 C 99.6 18.2 99.6 20.5 99.3 22.8 C 98.3 29.1 93.4 34.0 87.2 34.9 C 84.9 35.2 82.6 35.2 82.0 35.2 L 17.6 35.2 C 17.0 35.2 14.7 35.2 12.4 34.9 C 6.2 34.0 1.3 29.1 0.3 22.8 C 0.0 20.5 0.0 18.2 0.0 17.6 C 0.0 17.0 0.0 14.7 0.3 12.4 C 1.3 6.2 6.2 1.3 12.4 0.3 C 14.7 0.0 17.0 0.0 17.6 0.0 Z M 17.6 0.0 " fill="none" stroke="#000000" stroke-width="1.10" transform="matrix(1.00, 0.00, 0.00, -1.00, 300.1, 42.8)"></path></g></g><g><clipPath id="clip-540"><path d="M 395.5 0.3 L 504.1 0.3 L 504.1 44.5 L 395.5 44.5 Z M 395.5 0.3 "></path></clipPath><g clip-path="url(#clip-540)"><image xlink:href="../../3A383725-9A45-4955-BFDA-A423E87DD194/assets/74A6BA13847DCC18ECBBD643F9CEC464.png" width="107.00" height="42.00" transform="matrix(1.00, 0.00, -0.00, -1.01, 396.5, 43.5)" opacity="0.50"></image><path d="M 417.6 42.0 L 482.0 42.0 C 482.5 42.0 484.9 42.0 487.2 41.7 C 493.4 40.7 498.3 35.8 499.3 29.6 C 499.6 27.3 499.6 25.0 499.6 24.4 C 499.6 23.8 499.6 21.5 499.3 19.2 C 498.3 12.9 493.4 8.0 487.2 7.1 C 484.9 6.8 482.5 6.8 482.0 6.8 L 417.6 6.8 C 417.0 6.8 414.7 6.8 412.4 7.1 C 406.1 8.0 401.2 12.9 400.3 19.2 C 400.0 21.5 400.0 23.8 400.0 24.4 C 400.0 25.0 400.0 27.3 400.3 29.6 C 401.2 35.8 406.1 40.7 412.4 41.7 C 414.7 42.0 417.0 42.0 417.6 42.0 Z M 417.6 42.0 " fill="#51A7F9"></path><path d="M 17.6 0.0 L 82.0 0.0 C 82.6 0.0 84.9 0.0 87.2 0.3 C 93.4 1.3 98.3 6.2 99.3 12.4 C 99.6 14.7 99.6 17.0 99.6 17.6 C 99.6 18.2 99.6 20.5 99.3 22.8 C 98.3 29.1 93.4 34.0 87.2 34.9 C 84.9 35.2 82.6 35.2 82.0 35.2 L 17.6 35.2 C 17.0 35.2 14.7 35.2 12.4 34.9 C 6.2 34.0 1.3 29.1 0.3 22.8 C 0.0 20.5 0.0 18.2 0.0 17.6 C 0.0 17.0 0.0 14.7 0.3 12.4 C 1.3 6.2 6.2 1.3 12.4 0.3 C 14.7 0.0 17.0 0.0 17.6 0.0 Z M 17.6 0.0 " fill="none" stroke="#000000" stroke-width="1.10" transform="matrix(1.00, 0.00, 0.00, -1.00, 400.0, 42.0)"></path></g></g><g><clipPath id="clip-541"><path d="M 493.9 0.3 L 602.5 0.3 L 602.5 44.5 L 493.9 44.5 Z M 493.9 0.3 "></path></clipPath><g clip-path="url(#clip-541)"><image xlink:href="../../3A383725-9A45-4955-BFDA-A423E87DD194/assets/74A6BA13847DCC18ECBBD643F9CEC464.png" width="107.00" height="42.00" transform="matrix(1.00, 0.00, -0.00, -1.01, 494.9, 43.5)" opacity="0.50"></image><path d="M 516.0 42.0 L 580.4 42.0 C 581.0 42.0 583.3 42.0 585.6 41.7 C 591.9 40.7 596.7 35.8 597.7 29.6 C 598.0 27.3 598.0 25.0 598.0 24.4 C 598.0 23.8 598.0 21.5 597.7 19.2 C 596.7 12.9 591.9 8.0 585.6 7.1 C 583.3 6.8 581.0 6.8 580.4 6.8 L 516.0 6.8 C 515.4 6.8 513.1 6.8 510.8 7.1 C 504.6 8.0 499.7 12.9 498.7 19.2 C 498.4 21.5 498.4 23.8 498.4 24.4 C 498.4 25.0 498.4 27.3 498.7 29.6 C 499.7 35.8 504.6 40.7 510.8 41.7 C 513.1 42.0 515.4 42.0 516.0 42.0 Z M 516.0 42.0 " fill="#51A7F9"></path><path d="M 17.6 0.0 L 82.0 0.0 C 82.6 0.0 84.9 0.0 87.2 0.3 C 93.4 1.3 98.3 6.2 99.3 12.4 C 99.6 14.7 99.6 17.0 99.6 17.6 C 99.6 18.2 99.6 20.5 99.3 22.8 C 98.3 29.1 93.4 34.0 87.2 34.9 C 84.9 35.2 82.6 35.2 82.0 35.2 L 17.6 35.2 C 17.0 35.2 14.7 35.2 12.4 34.9 C 6.2 34.0 1.3 29.1 0.3 22.8 C 0.0 20.5 0.0 18.2 0.0 17.6 C 0.0 17.0 0.0 14.7 0.3 12.4 C 1.3 6.2 6.2 1.3 12.4 0.3 C 14.7 0.0 17.0 0.0 17.6 0.0 Z M 17.6 0.0 " fill="none" stroke="#000000" stroke-width="1.10" transform="matrix(1.00, 0.00, 0.00, -1.00, 498.4, 42.0)"></path></g></g><g><clipPath id="clip-542"><path d="M 592.3 0.3 L 700.9 0.3 L 700.9 44.5 L 592.3 44.5 Z M 592.3 0.3 "></path></clipPath><g clip-path="url(#clip-542)"><image xlink:href="../../3A383725-9A45-4955-BFDA-A423E87DD194/assets/74A6BA13847DCC18ECBBD643F9CEC464.png" width="107.00" height="42.00" transform="matrix(1.00, 0.00, -0.00, -1.01, 593.3, 43.5)" opacity="0.50"></image><path d="M 614.5 42.0 L 678.8 42.0 C 679.4 42.0 681.8 42.0 684.0 41.7 C 690.3 40.7 695.2 35.8 696.1 29.6 C 696.4 27.3 696.4 25.0 696.4 24.4 C 696.4 23.8 696.4 21.5 696.1 19.2 C 695.2 12.9 690.3 8.0 684.0 7.1 C 681.8 6.8 679.4 6.8 678.8 6.8 L 614.5 6.8 C 613.9 6.8 611.5 6.8 609.2 7.1 C 603.0 8.0 598.1 12.9 597.1 19.2 C 596.8 21.5 596.8 23.8 596.8 24.4 C 596.8 25.0 596.8 27.3 597.1 29.6 C 598.1 35.8 603.0 40.7 609.2 41.7 C 611.5 42.0 613.9 42.0 614.5 42.0 Z M 614.5 42.0 " fill="#51A7F9"></path><path d="M 17.6 0.0 L 82.0 0.0 C 82.6 0.0 84.9 0.0 87.2 0.3 C 93.4 1.3 98.3 6.2 99.3 12.4 C 99.6 14.7 99.6 17.0 99.6 17.6 C 99.6 18.2 99.6 20.5 99.3 22.8 C 98.3 29.1 93.4 34.0 87.2 34.9 C 84.9 35.2 82.6 35.2 82.0 35.2 L 17.6 35.2 C 17.0 35.2 14.7 35.2 12.4 34.9 C 6.2 34.0 1.3 29.1 0.3 22.8 C 0.0 20.5 0.0 18.2 0.0 17.6 C 0.0 17.0 0.0 14.7 0.3 12.4 C 1.3 6.2 6.2 1.3 12.4 0.3 C 14.7 0.0 17.0 0.0 17.6 0.0 Z M 17.6 0.0 " fill="none" stroke="#000000" stroke-width="1.10" transform="matrix(1.00, 0.00, 0.00, -1.00, 596.8, 42.0)"></path></g></g><g><clipPath id="clip-543"><path d="M 690.8 0.3 L 799.4 0.3 L 799.4 44.5 L 690.8 44.5 Z M 690.8 0.3 "></path></clipPath><g clip-path="url(#clip-543)"><image xlink:href="../../3A383725-9A45-4955-BFDA-A423E87DD194/assets/74A6BA13847DCC18ECBBD643F9CEC464.png" width="107.00" height="42.00" transform="matrix(1.00, 0.00, -0.00, -1.01, 691.8, 43.5)" opacity="0.50"></image><path d="M 712.9 42.0 L 777.3 42.0 C 777.8 42.0 780.2 42.0 782.5 41.7 C 788.7 40.7 793.6 35.8 794.6 29.6 C 794.9 27.3 794.9 25.0 794.9 24.4 C 794.9 23.8 794.9 21.5 794.6 19.2 C 793.6 12.9 788.7 8.0 782.5 7.1 C 780.2 6.8 777.8 6.8 777.3 6.8 L 712.9 6.8 C 712.3 6.8 710.0 6.8 707.7 7.1 C 701.4 8.0 696.5 12.9 695.6 19.2 C 695.3 21.5 695.3 23.8 695.3 24.4 C 695.3 25.0 695.3 27.3 695.6 29.6 C 696.5 35.8 701.4 40.7 707.7 41.7 C 710.0 42.0 712.3 42.0 712.9 42.0 Z M 712.9 42.0 " fill="#51A7F9"></path><path d="M 17.6 0.0 L 82.0 0.0 C 82.6 0.0 84.9 0.0 87.2 0.3 C 93.4 1.3 98.3 6.2 99.3 12.4 C 99.6 14.7 99.6 17.0 99.6 17.6 C 99.6 18.2 99.6 20.5 99.3 22.8 C 98.3 29.1 93.4 34.0 87.2 34.9 C 84.9 35.2 82.6 35.2 82.0 35.2 L 17.6 35.2 C 17.0 35.2 14.7 35.2 12.4 34.9 C 6.2 34.0 1.3 29.1 0.3 22.8 C 0.0 20.5 0.0 18.2 0.0 17.6 C 0.0 17.0 0.0 14.7 0.3 12.4 C 1.3 6.2 6.2 1.3 12.4 0.3 C 14.7 0.0 17.0 0.0 17.6 0.0 Z M 17.6 0.0 " fill="none" stroke="#000000" stroke-width="1.10" transform="matrix(1.00, 0.00, 0.00, -1.00, 695.3, 42.0)"></path></g></g><g><clipPath id="clip-544"><path d="M 790.6 0.9 L 899.2 0.9 L 899.2 45.1 L 790.6 45.1 Z M 790.6 0.9 "></path></clipPath><g clip-path="url(#clip-544)"><image xlink:href="../../3A383725-9A45-4955-BFDA-A423E87DD194/assets/74A6BA13847DCC18ECBBD643F9CEC464.png" width="107.00" height="42.00" transform="matrix(1.00, 0.00, -0.00, -1.01, 791.6, 44.1)" opacity="0.50"></image><path d="M 812.7 42.6 L 877.1 42.6 C 877.7 42.6 880.0 42.6 882.3 42.3 C 888.6 41.4 893.5 36.5 894.4 30.2 C 894.7 27.9 894.7 25.6 894.7 25.0 C 894.7 24.4 894.7 22.1 894.4 19.8 C 893.5 13.6 888.6 8.7 882.3 7.7 C 880.0 7.4 877.7 7.4 877.1 7.4 L 812.7 7.4 C 812.2 7.4 809.8 7.4 807.5 7.7 C 801.3 8.7 796.4 13.6 795.4 19.8 C 795.1 22.1 795.1 24.4 795.1 25.0 C 795.1 25.6 795.1 27.9 795.4 30.2 C 796.4 36.5 801.3 41.4 807.5 42.3 C 809.8 42.6 812.2 42.6 812.7 42.6 Z M 812.7 42.6 " fill="#51A7F9"></path><path d="M 17.6 0.0 L 82.0 0.0 C 82.6 0.0 84.9 0.0 87.2 0.3 C 93.4 1.3 98.3 6.2 99.3 12.4 C 99.6 14.7 99.6 17.0 99.6 17.6 C 99.6 18.2 99.6 20.5 99.3 22.8 C 98.3 29.1 93.4 34.0 87.2 34.9 C 84.9 35.2 82.6 35.2 82.0 35.2 L 17.6 35.2 C 17.0 35.2 14.7 35.2 12.4 34.9 C 6.2 34.0 1.3 29.1 0.3 22.8 C 0.0 20.5 0.0 18.2 0.0 17.6 C 0.0 17.0 0.0 14.7 0.3 12.4 C 1.3 6.2 6.2 1.3 12.4 0.3 C 14.7 0.0 17.0 0.0 17.6 0.0 Z M 17.6 0.0 " fill="none" stroke="#000000" stroke-width="1.10" transform="matrix(1.00, 0.00, 0.00, -1.00, 795.1, 42.6)"></path></g></g><g><clipPath id="clip-545"><path d="M 889.1 0.9 L 997.7 0.9 L 997.7 45.1 L 889.1 45.1 Z M 889.1 0.9 "></path></clipPath><g clip-path="url(#clip-545)"><image xlink:href="../../3A383725-9A45-4955-BFDA-A423E87DD194/assets/74A6BA13847DCC18ECBBD643F9CEC464.png" width="107.00" height="42.00" transform="matrix(1.00, 0.00, -0.00, -1.01, 890.1, 44.1)" opacity="0.50"></image><path d="M 911.2 42.6 L 975.5 42.6 C 976.1 42.6 978.5 42.6 980.8 42.3 C 987.0 41.4 991.9 36.5 992.9 30.2 C 993.2 27.9 993.2 25.6 993.2 25.0 C 993.2 24.4 993.2 22.1 992.9 19.8 C 991.9 13.6 987.0 8.7 980.8 7.7 C 978.5 7.4 976.1 7.4 975.5 7.4 L 911.2 7.4 C 910.6 7.4 908.3 7.4 906.0 7.7 C 899.7 8.7 894.8 13.6 893.9 19.8 C 893.6 22.1 893.6 24.4 893.6 25.0 C 893.6 25.6 893.6 27.9 893.9 30.2 C 894.8 36.5 899.7 41.4 906.0 42.3 C 908.3 42.6 910.6 42.6 911.2 42.6 Z M 911.2 42.6 " fill="#51A7F9"></path><path d="M 17.6 0.0 L 82.0 0.0 C 82.6 0.0 84.9 0.0 87.2 0.3 C 93.4 1.3 98.3 6.2 99.3 12.4 C 99.6 14.7 99.6 17.0 99.6 17.6 C 99.6 18.2 99.6 20.5 99.3 22.8 C 98.3 29.1 93.4 34.0 87.2 34.9 C 84.9 35.2 82.6 35.2 82.0 35.2 L 17.6 35.2 C 17.0 35.2 14.7 35.2 12.4 34.9 C 6.2 34.0 1.3 29.1 0.3 22.8 C 0.0 20.5 0.0 18.2 0.0 17.6 C 0.0 17.0 0.0 14.7 0.3 12.4 C 1.3 6.2 6.2 1.3 12.4 0.3 C 14.7 0.0 17.0 0.0 17.6 0.0 Z M 17.6 0.0 " fill="none" stroke="#000000" stroke-width="1.10" transform="matrix(1.00, 0.00, 0.00, -1.00, 893.6, 42.6)"></path></g></g><g><clipPath id="clip-546"><path d="M 987.5 0.9 L 1096.1 0.9 L 1096.1 45.1 L 987.5 45.1 Z M 987.5 0.9 "></path></clipPath><g clip-path="url(#clip-546)"><image xlink:href="../../3A383725-9A45-4955-BFDA-A423E87DD194/assets/74A6BA13847DCC18ECBBD643F9CEC464.png" width="107.00" height="42.00" transform="matrix(1.00, 0.00, -0.00, -1.01, 988.5, 44.1)" opacity="0.50"></image><path d="M 1009.6 42.6 L 1074.0 42.6 C 1074.6 42.6 1076.9 42.6 1079.2 42.3 C 1085.4 41.4 1090.3 36.5 1091.3 30.2 C 1091.6 27.9 1091.6 25.6 1091.6 25.0 C 1091.6 24.4 1091.6 22.1 1091.3 19.8 C 1090.3 13.6 1085.4 8.7 1079.2 7.7 C 1076.9 7.4 1074.6 7.4 1074.0 7.4 L 1009.6 7.4 C 1009.0 7.4 1006.7 7.4 1004.4 7.7 C 998.2 8.7 993.3 13.6 992.3 19.8 C 992.0 22.1 992.0 24.4 992.0 25.0 C 992.0 25.6 992.0 27.9 992.3 30.2 C 993.3 36.5 998.2 41.4 1004.4 42.3 C 1006.7 42.6 1009.0 42.6 1009.6 42.6 Z M 1009.6 42.6 " fill="#51A7F9"></path><path d="M 17.6 0.0 L 82.0 0.0 C 82.6 0.0 84.9 0.0 87.2 0.3 C 93.4 1.3 98.3 6.2 99.3 12.4 C 99.6 14.7 99.6 17.0 99.6 17.6 C 99.6 18.2 99.6 20.5 99.3 22.8 C 98.3 29.1 93.4 34.0 87.2 34.9 C 84.9 35.2 82.6 35.2 82.0 35.2 L 17.6 35.2 C 17.0 35.2 14.7 35.2 12.4 34.9 C 6.2 34.0 1.3 29.1 0.3 22.8 C 0.0 20.5 0.0 18.2 0.0 17.6 C 0.0 17.0 0.0 14.7 0.3 12.4 C 1.3 6.2 6.2 1.3 12.4 0.3 C 14.7 0.0 17.0 0.0 17.6 0.0 Z M 17.6 0.0 " fill="none" stroke="#000000" stroke-width="1.10" transform="matrix(1.00, 0.00, 0.00, -1.00, 992.0, 42.6)"></path></g></g><g><clipPath id="clip-547"><path d="M 1085.9 0.9 L 1194.5 0.9 L 1194.5 45.1 L 1085.9 45.1 Z M 1085.9 0.9 "></path></clipPath><g clip-path="url(#clip-547)"><image xlink:href="../../3A383725-9A45-4955-BFDA-A423E87DD194/assets/74A6BA13847DCC18ECBBD643F9CEC464.png" width="107.00" height="42.00" transform="matrix(1.00, 0.00, -0.00, -1.01, 1086.9, 44.1)" opacity="0.50"></image><path d="M 1108.1 42.6 L 1172.4 42.6 C 1173.0 42.6 1175.3 42.6 1177.6 42.3 C 1183.9 41.4 1188.8 36.5 1189.7 30.2 C 1190.0 27.9 1190.0 25.6 1190.0 25.0 C 1190.0 24.4 1190.0 22.1 1189.7 19.8 C 1188.8 13.6 1183.9 8.7 1177.6 7.7 C 1175.3 7.4 1173.0 7.4 1172.4 7.4 L 1108.1 7.4 C 1107.5 7.4 1105.1 7.4 1102.8 7.7 C 1096.6 8.7 1091.7 13.6 1090.7 19.8 C 1090.4 22.1 1090.4 24.4 1090.4 25.0 C 1090.4 25.6 1090.4 27.9 1090.7 30.2 C 1091.7 36.5 1096.6 41.4 1102.8 42.3 C 1105.1 42.6 1107.5 42.6 1108.1 42.6 Z M 1108.1 42.6 " fill="#51A7F9"></path><path d="M 17.6 0.0 L 82.0 0.0 C 82.6 0.0 84.9 0.0 87.2 0.3 C 93.4 1.3 98.3 6.2 99.3 12.4 C 99.6 14.7 99.6 17.0 99.6 17.6 C 99.6 18.2 99.6 20.5 99.3 22.8 C 98.3 29.1 93.4 34.0 87.2 34.9 C 84.9 35.2 82.6 35.2 82.0 35.2 L 17.6 35.2 C 17.0 35.2 14.7 35.2 12.4 34.9 C 6.2 34.0 1.3 29.1 0.3 22.8 C 0.0 20.5 0.0 18.2 0.0 17.6 C 0.0 17.0 0.0 14.7 0.3 12.4 C 1.3 6.2 6.2 1.3 12.4 0.3 C 14.7 0.0 17.0 0.0 17.6 0.0 Z M 17.6 0.0 " fill="none" stroke="#000000" stroke-width="1.10" transform="matrix(1.00, 0.00, 0.00, -1.00, 1090.4, 42.6)"></path></g></g><g><clipPath id="clip-548"><path d="M 43.0 58.3 L 79.2 58.3 L 79.2 112.3 L 43.0 112.3 Z M 43.0 58.3 "></path></clipPath><g clip-path="url(#clip-548)"><text xml:space="preserve" font-family="Courier" font-size="32.0" fill="#000000" transform="matrix(1.00, 0.00, -0.00, -1.00, 51.0, 74.0)">0</text></g></g><g><clipPath id="clip-549"><path d="M 137.2 58.3 L 173.4 58.3 L 173.4 112.3 L 137.2 112.3 Z M 137.2 58.3 "></path></clipPath><g clip-path="url(#clip-549)"><text xml:space="preserve" font-family="Courier" font-size="32.0" fill="#000000" transform="matrix(1.00, 0.00, -0.00, -1.00, 146.0, 74.0)">1</text></g></g><g><clipPath id="clip-550"><path d="M 235.6 58.3 L 271.8 58.3 L 271.8 112.3 L 235.6 112.3 Z M 235.6 58.3 "></path></clipPath><g clip-path="url(#clip-550)"><text xml:space="preserve" font-family="Courier" font-size="32.0" fill="#000000" transform="matrix(1.00, 0.00, -0.00, -1.00, 244.0, 74.0)">2</text></g></g><g><clipPath id="clip-551"><path d="M 334.1 58.3 L 370.3 58.3 L 370.3 112.3 L 334.1 112.3 Z M 334.1 58.3 "></path></clipPath><g clip-path="url(#clip-551)"><text xml:space="preserve" font-family="Courier" font-size="32.0" fill="#000000" transform="matrix(1.00, 0.00, -0.00, -1.00, 343.0, 74.0)">3</text></g></g><g><clipPath id="clip-552"><path d="M 432.5 58.3 L 468.7 58.3 L 468.7 112.3 L 432.5 112.3 Z M 432.5 58.3 "></path></clipPath><g clip-path="url(#clip-552)"><text xml:space="preserve" font-family="Courier" font-size="32.0" fill="#000000" transform="matrix(1.00, 0.00, -0.00, -1.00, 441.0, 74.0)">4</text></g></g><g><clipPath id="clip-553"><path d="M 530.9 58.3 L 567.1 58.3 L 567.1 112.3 L 530.9 112.3 Z M 530.9 58.3 "></path></clipPath><g clip-path="url(#clip-553)"><text xml:space="preserve" font-family="Courier" font-size="32.0" fill="#000000" transform="matrix(1.00, 0.00, -0.00, -1.00, 539.0, 74.0)">5</text></g></g><g><clipPath id="clip-554"><path d="M 629.4 58.3 L 665.6 58.3 L 665.6 112.3 L 629.4 112.3 Z M 629.4 58.3 "></path></clipPath><g clip-path="url(#clip-554)"><text xml:space="preserve" font-family="Courier" font-size="32.0" fill="#000000" transform="matrix(1.00, 0.00, -0.00, -1.00, 638.0, 74.0)">6</text></g></g><g><clipPath id="clip-555"><path d="M 727.8 58.3 L 764.0 58.3 L 764.0 112.3 L 727.8 112.3 Z M 727.8 58.3 "></path></clipPath><g clip-path="url(#clip-555)"><text xml:space="preserve" font-family="Courier" font-size="32.0" fill="#000000" transform="matrix(1.00, 0.00, -0.00, -1.00, 736.0, 74.0)">7</text></g></g><g><clipPath id="clip-556"><path d="M 826.2 58.3 L 862.4 58.3 L 862.4 112.3 L 826.2 112.3 Z M 826.2 58.3 "></path></clipPath><g clip-path="url(#clip-556)"><text xml:space="preserve" font-family="Courier" font-size="32.0" fill="#000000" transform="matrix(1.00, 0.00, -0.00, -1.00, 835.0, 74.0)">8</text></g></g><g><clipPath id="clip-557"><path d="M 924.7 58.3 L 960.9 58.3 L 960.9 112.3 L 924.7 112.3 Z M 924.7 58.3 "></path></clipPath><g clip-path="url(#clip-557)"><text xml:space="preserve" font-family="Courier" font-size="32.0" fill="#000000" transform="matrix(1.00, 0.00, -0.00, -1.00, 933.0, 74.0)">9</text></g></g><g><clipPath id="clip-558"><path d="M 1013.5 58.3 L 1068.9 58.3 L 1068.9 112.3 L 1013.5 112.3 Z M 1013.5 58.3 "></path></clipPath><g clip-path="url(#clip-558)"><text xml:space="preserve" font-family="Courier" font-size="32.0" fill="#000000" transform="matrix(1.00, 0.00, -0.00, -1.00, 1022.0, 74.0)">1</text><text xml:space="preserve" font-family="Courier" font-size="32.0" fill="#000000" transform="matrix(1.00, 0.00, -0.00, -1.00, 1041.2, 74.0)">0</text></g></g><g><clipPath id="clip-559"><path d="M 1112.0 58.3 L 1167.4 58.3 L 1167.4 112.3 L 1112.0 112.3 Z M 1112.0 58.3 "></path></clipPath><g clip-path="url(#clip-559)"><text xml:space="preserve" font-family="Courier" font-size="32.0" fill="#000000" transform="matrix(1.00, 0.00, -0.00, -1.00, 1120.0, 74.0)">1</text><text xml:space="preserve" font-family="Courier" font-size="32.0" fill="#000000" transform="matrix(1.00, 0.00, -0.00, -1.00, 1139.2, 74.0)">1</text></g></g></g></svg>