<?xml version="1.0" encoding="UTF-8" standalone="no"?><svg xmlns="http://www.w3.org/2000/svg" xmlns:xlink="http://www.w3.org/1999/xlink" clip-rule="evenodd" stroke-miterlimit="4.00" viewBox="0 0 116 301"><desc>SVG generated by Keynote</desc><defs></defs><g transform="matrix(1.00, 0.00, -0.00, -1.00, 0.0, 301.0)"><g><clipPath id="clip-438"><path d="M -3.5 -3.1 L 119.5 -3.1 L 119.5 57.9 L -3.5 57.9 Z M -3.5 -3.1 "></path></clipPath><g clip-path="url(#clip-438)"><text xml:space="preserve" font-family="Helvetica-Light" font-size="36.0" fill="#000000" transform="matrix(1.00, 0.00, -0.00, -1.00, 6.0, 14.0)">a</text><text xml:space="preserve" font-family="Helvetica-Light" font-size="36.0" fill="#000000" transform="matrix(1.00, 0.00, -0.00, -1.00, 26.0, 14.0)">[</text><text xml:space="preserve" font-family="Helvetica-Light" font-size="36.0" fill="#000000" transform="matrix(1.00, 0.00, -0.00, -1.00, 38.0, 14.0)">1</text><text xml:space="preserve" font-family="Helvetica-Light" font-size="36.0" fill="#000000" transform="matrix(1.00, 0.00, -0.00, -1.00, 58.0, 14.0)">,</text><text xml:space="preserve" font-family="Helvetica-Light" font-size="36.0" fill="#000000" transform="matrix(1.00, 0.00, -0.00, -1.00, 68.0, 14.0)"> </text><text xml:space="preserve" font-family="Helvetica-Light" font-size="36.0" fill="#000000" transform="matrix(1.00, 0.00, -0.00, -1.00, 78.0, 14.0)">2</text><text xml:space="preserve" font-family="Helvetica-Light" font-size="36.0" fill="#000000" transform="matrix(1.00, 0.00, -0.00, -1.00, 98.1, 14.0)">]</text></g></g><g><clipPath id="clip-439"><path d="M 2.0 123.0 L 112.0 123.0 L 112.0 182.0 L 2.0 182.0 Z M 2.0 123.0 "></path></clipPath><g clip-path="url(#clip-439)"><image xlink:href="60ABA035946A14EDED806B650A9C0369.png" width="108.00" height="57.00" transform="matrix(1.00, 0.00, -0.00, -1.00, 3.0, 181.0)" opacity="0.50"></image><path d="M 85.4 7.2 C 104.9 16.7 104.9 32.3 85.4 41.8 C 65.8 51.4 34.2 51.4 14.6 41.8 C -4.9 32.3 -4.9 16.7 14.6 7.2 C 34.2 -2.4 65.8 -2.4 85.4 7.2 Z M 85.4 7.2 " fill="none" stroke="#851001" stroke-width="2.00" transform="matrix(1.00, 0.00, 0.00, -1.00, 7.0, 179.0)"></path></g></g><g><clipPath id="clip-440"><path d="M 54.2 180.6 L 54.2 257.0 L 65.8 257.0 L 65.8 180.6 Z M 54.2 180.6 "></path></clipPath><g clip-path="url(#clip-440)"><path d="M 0.0 0.0 L 64.8 0.0 L 65.8 0.0 " fill="none" stroke="#000000" stroke-width="2.00" transform="matrix(0.00, 1.00, 1.00, 0.00, 60.0, 181.6)"></path><path d="M 64.8 246.4 L 60.0 256.0 L 55.2 246.4 Z M 64.8 246.4 " fill="#000000"></path></g></g><g><clipPath id="clip-441"><path d="M 38.5 243.5 L 77.5 243.5 L 77.5 304.5 L 38.5 304.5 Z M 38.5 243.5 "></path></clipPath><g clip-path="url(#clip-441)"><text xml:space="preserve" font-family="Helvetica-Light" font-size="36.0" fill="#000000" transform="matrix(1.00, 0.00, -0.00, -1.00, 48.0, 261.0)">6</text></g></g><g><clipPath id="clip-442"><path d="M 53.2 74.0 L 53.2 127.0 L 64.8 127.0 L 64.8 74.0 Z M 53.2 74.0 "></path></clipPath><g clip-path="url(#clip-442)"><path d="M 0.0 0.0 L 41.4 0.0 L 42.4 0.0 " fill="none" stroke="#000000" stroke-width="2.00" transform="matrix(0.00, 1.00, 1.00, 0.00, 59.0, 75.0)"></path><path d="M 63.8 116.4 L 59.0 126.0 L 54.2 116.4 Z M 63.8 116.4 " fill="#000000"></path></g></g></g></svg>