<?xml version="1.0" encoding="UTF-8" standalone="no"?><svg xmlns="http://www.w3.org/2000/svg" xmlns:xlink="http://www.w3.org/1999/xlink" clip-rule="evenodd" stroke-miterlimit="4.00" viewBox="0 0 370 117"><desc>SVG generated by Keynote</desc><defs></defs><g transform="matrix(1.00, 0.00, -0.00, -1.00, 0.0, 117.0)"><g><clipPath id="clip-436"><path d="M 317.5 76.8 L 370.5 76.8 L 370.5 117.8 L 317.5 117.8 Z M 317.5 76.8 "></path></clipPath><g clip-path="url(#clip-436)"><text xml:space="preserve" font-family="Helvetica-Light" font-size="24.0" fill="#000000" transform="matrix(1.00, 0.00, -0.00, -1.00, 324.0, 88.0)">6</text><text xml:space="preserve" font-family="Helvetica-Light" font-size="24.0" fill="#000000" transform="matrix(1.00, 0.00, -0.00, -1.00, 337.3, 88.0)">0</text><text xml:space="preserve" font-family="Helvetica-Light" font-size="24.0" fill="#000000" transform="matrix(1.00, 0.00, -0.00, -1.00, 350.7, 88.0)">0</text></g></g><g><clipPath id="clip-437"><path d="M 0.5 0.4 L 347.5 0.4 L 347.5 80.6 L 0.5 80.6 Z M 0.5 0.4 "></path></clipPath><g clip-path="url(#clip-437)"><path d="M 0.0 69.1 C 52.0 70.3 103.3 72.4 154.2 75.0 C 201.6 77.5 250.2 80.6 297.0 66.4 C 304.8 64.0 312.5 61.1 319.7 57.3 C 325.9 54.0 331.7 50.1 337.0 45.4 C 339.4 37.7 341.1 29.8 342.3 21.8 C 343.4 14.6 343.9 7.3 344.0 0.0 " fill="none" stroke="#A6AAA8" stroke-width="2.00" stroke-dasharray="4.0, 4.0" transform="matrix(1.00, 0.00, 0.00, -1.00, 1.5, 79.6)"></path></g></g></g></svg>