<?xml version="1.0" encoding="UTF-8" standalone="no"?><svg xmlns="http://www.w3.org/2000/svg" xmlns:xlink="http://www.w3.org/1999/xlink" clip-rule="evenodd" stroke-miterlimit="4.00" viewBox="0 0 159 460"><desc>SVG generated by Keynote</desc><defs></defs><g transform="matrix(1.00, 0.00, -0.00, -1.00, 0.0, 460.0)"><g><clipPath id="clip-583"><path d="M -7.3 -7.5 L 166.0 -7.5 L 166.0 77.5 L -7.3 77.5 Z M -7.3 -7.5 "></path></clipPath><g clip-path="url(#clip-583)"><text xml:space="preserve" font-family="Helvetica-Light" font-size="50.0" fill="#000000" transform="matrix(1.00, 0.00, -0.00, -1.00, 6.0, 17.0)">b</text><text xml:space="preserve" font-family="Helvetica-Light" font-size="50.0" fill="#000000" transform="matrix(1.00, 0.00, -0.00, -1.00, 36.5, 17.0)">[</text><text xml:space="preserve" font-family="Helvetica-Light" font-size="50.0" fill="#000000" transform="matrix(1.00, 0.00, -0.00, -1.00, 53.2, 17.0)">3</text><text xml:space="preserve" font-family="Helvetica-Light" font-size="50.0" fill="#000000" transform="matrix(1.00, 0.00, -0.00, -1.00, 81.0, 17.0)">,</text><text xml:space="preserve" font-family="Helvetica-Light" font-size="50.0" fill="#000000" transform="matrix(1.00, 0.00, -0.00, -1.00, 94.9, 17.0)"> </text><text xml:space="preserve" font-family="Helvetica-Light" font-size="50.0" fill="#000000" transform="matrix(1.00, 0.00, -0.00, -1.00, 108.8, 17.0)">0</text><text xml:space="preserve" font-family="Helvetica-Light" font-size="50.0" fill="#000000" transform="matrix(1.00, 0.00, -0.00, -1.00, 136.6, 17.0)">]</text></g></g><g><clipPath id="clip-584"><path d="M 2.7 172.3 L 153.3 172.3 L 153.3 251.2 L 2.7 251.2 Z M 2.7 172.3 "></path></clipPath><g clip-path="url(#clip-584)"><image xlink:href="../../3A383725-9A45-4955-BFDA-A423E87DD194/assets/766D3C8EFC3A9792F57493E2B3841EE7.png" width="149.00" height="77.00" transform="matrix(1.00, 0.00, -0.00, -1.00, 3.7, 250.2)" opacity="0.50"></image><path d="M 120.0 10.1 C 147.5 23.5 147.5 45.4 120.0 58.8 C 92.6 72.3 48.1 72.3 20.6 58.8 C -6.9 45.4 -6.9 23.5 20.6 10.1 C 48.1 -3.4 92.6 -3.4 120.0 10.1 Z M 120.0 10.1 " fill="none" stroke="#851001" stroke-width="2.00" transform="matrix(1.00, 0.00, 0.00, -1.00, 7.7, 248.2)"></path></g></g><g><clipPath id="clip-585"><path d="M 76.4 250.9 L 76.4 357.4 L 88.0 357.4 L 88.0 250.9 Z M 76.4 250.9 "></path></clipPath><g clip-path="url(#clip-585)"><path d="M 0.0 0.0 L 95.0 0.0 L 96.0 0.0 " fill="none" stroke="#000000" stroke-width="2.00" transform="matrix(0.00, 1.00, 1.00, 0.00, 82.2, 251.9)"></path><path d="M 87.0 346.8 L 82.2 356.4 L 77.4 346.8 Z M 87.0 346.8 " fill="#000000"></path></g></g><g><clipPath id="clip-586"><path d="M 52.5 339.3 L 106.3 339.3 L 106.3 424.3 L 52.5 424.3 Z M 52.5 339.3 "></path></clipPath><g clip-path="url(#clip-586)"><text xml:space="preserve" font-family="Helvetica-Light" font-size="50.0" fill="#000000" transform="matrix(1.00, 0.00, -0.00, -1.00, 65.0, 363.0)">6</text></g></g><g><clipPath id="clip-587"><path d="M 75.0 100.9 L 75.0 174.6 L 86.6 174.6 L 86.6 100.9 Z M 75.0 100.9 "></path></clipPath><g clip-path="url(#clip-587)"><path d="M 0.0 0.0 L 62.1 0.0 L 63.1 0.0 " fill="none" stroke="#000000" stroke-width="2.00" transform="matrix(0.00, 1.00, 1.00, 0.00, 80.8, 101.9)"></path><path d="M 85.6 164.0 L 80.8 173.6 L 76.0 164.0 Z M 85.6 164.0 " fill="#000000"></path></g></g><g><clipPath id="clip-588"><path d="M 33.5 402.8 L 67.2 402.8 L 67.2 459.7 L 33.5 459.7 Z M 33.5 402.8 "></path></clipPath><g clip-path="url(#clip-588)"><path d="M 30.0 53.8 L 15.1 16.6 L 0.0 0.0 " fill="none" stroke="#A6AAA8" stroke-width="2.00" stroke-dasharray="4.0, 4.0" transform="matrix(1.00, 0.00, 0.00, -1.00, 35.2, 458.0)"></path></g></g></g></svg>