<?xml version="1.0" encoding="UTF-8" standalone="no"?><svg xmlns="http://www.w3.org/2000/svg" xmlns:xlink="http://www.w3.org/1999/xlink" clip-rule="evenodd" stroke-miterlimit="4.00" viewBox="0 0 831 301"><desc>SVG generated by Keynote</desc><defs></defs><g transform="matrix(1.00, 0.00, -0.00, -1.00, 0.0, 301.0)"><g><clipPath id="clip-568"><path d="M 335.9 53.0 L 392.5 53.0 L 392.5 138.0 L 335.9 138.0 Z M 335.9 53.0 "></path></clipPath><g clip-path="url(#clip-568)"><text xml:space="preserve" font-family="Helvetica-Light" font-size="50.0" fill="#000000" transform="matrix(1.00, 0.00, -0.00, -1.00, 349.0, 77.0)">b</text></g></g><g><clipPath id="clip-569"><path d="M 427.7 0.5 L 830.6 0.5 L 830.6 146.4 L 427.7 146.4 Z M 427.7 0.5 "></path></clipPath><g clip-path="url(#clip-569)"><image xlink:href="../../3A383725-9A45-4955-BFDA-A423E87DD194/assets/1C40C184CABDD85811700C407653F2E6.png" width="401.00" height="144.00" transform="matrix(1.00, 0.00, -0.00, -1.00, 428.7, 145.4)" opacity="0.50"></image><path d="M 466.0 144.4 L 792.3 144.4 C 802.1 144.4 807.1 144.4 812.4 142.7 C 818.2 140.6 822.8 136.0 824.9 130.2 C 826.6 124.9 826.6 119.9 826.6 109.9 L 826.6 40.9 C 826.6 31.0 826.6 26.0 824.9 20.7 C 822.8 14.9 818.2 10.3 812.4 8.2 C 807.1 6.5 802.1 6.5 792.1 6.5 L 466.0 6.5 C 456.2 6.5 451.2 6.5 445.9 8.2 C 440.1 10.3 435.5 14.9 433.4 20.7 C 431.7 26.0 431.7 31.0 431.7 41.0 L 431.7 110.1 C 431.7 119.9 431.7 124.9 433.4 130.2 C 435.5 136.0 440.1 140.6 445.9 142.7 C 451.2 144.4 456.2 144.4 466.2 144.4 Z M 466.0 144.4 " fill="#A6AAA8"></path></g></g><g><clipPath id="clip-570"><path d="M 427.7 6.5 L 830.6 6.5 L 830.6 144.4 L 427.7 144.4 Z M 427.7 6.5 "></path></clipPath><g clip-path="url(#clip-570)"><text xml:space="preserve" font-family="Helvetica-Light" font-size="32.0" fill="#000000" transform="matrix(1.00, 0.00, -0.00, -1.00, 538.0, 44.0)">s</text><text xml:space="preserve" font-family="Helvetica-Light" font-size="32.0" fill="#000000" transform="matrix(1.00, 0.00, -0.00, -1.00, 554.0, 44.0)">h</text><text xml:space="preserve" font-family="Helvetica-Light" font-size="32.0" fill="#000000" transform="matrix(1.00, 0.00, -0.00, -1.00, 571.8, 44.0)">a</text><text xml:space="preserve" font-family="Helvetica-Light" font-size="32.0" fill="#000000" transform="matrix(1.00, 0.00, -0.00, -1.00, 589.6, 44.0)">p</text><text xml:space="preserve" font-family="Helvetica-Light" font-size="32.0" fill="#000000" transform="matrix(1.00, 0.00, -0.00, -1.00, 609.1, 44.0)">e</text><text xml:space="preserve" font-family="Helvetica-Light" font-size="32.0" fill="#000000" transform="matrix(1.00, 0.00, -0.00, -1.00, 626.9, 44.0)"> </text><text xml:space="preserve" font-family="Helvetica-Light" font-size="32.0" fill="#000000" transform="matrix(1.00, 0.00, -0.00, -1.00, 635.8, 44.0)">=</text><text xml:space="preserve" font-family="Helvetica-Light" font-size="32.0" fill="#000000" transform="matrix(1.00, 0.00, -0.00, -1.00, 656.9, 44.0)">(</text><text xml:space="preserve" font-family="Helvetica-Light" font-size="32.0" fill="#000000" transform="matrix(1.00, 0.00, -0.00, -1.00, 667.6, 44.0)">6</text><text xml:space="preserve" font-family="Helvetica-Light" font-size="32.0" fill="#000000" transform="matrix(1.00, 0.00, -0.00, -1.00, 685.4, 44.0)">,</text><text xml:space="preserve" font-family="Helvetica-Light" font-size="32.0" fill="#000000" transform="matrix(1.00, 0.00, -0.00, -1.00, 694.3, 44.0)"> </text><text xml:space="preserve" font-family="Helvetica-Light" font-size="32.0" fill="#000000" transform="matrix(1.00, 0.00, -0.00, -1.00, 703.2, 44.0)">2</text><text xml:space="preserve" font-family="Helvetica-Light" font-size="32.0" fill="#000000" transform="matrix(1.00, 0.00, -0.00, -1.00, 721.0, 44.0)">)</text></g></g><g><clipPath id="clip-571"><path d="M 428.1 74.7 L 618.1 74.7 L 618.1 141.8 L 428.1 141.8 Z M 428.1 74.7 "></path></clipPath><g clip-path="url(#clip-571)"><image xlink:href="../../3A383725-9A45-4955-BFDA-A423E87DD194/assets/BD2C05DF742F5D7E0C933DBA99D54EDD.png" width="188.00" height="65.00" transform="matrix(1.00, 0.00, -0.00, -1.00, 429.1, 140.8)" opacity="0.50"></image></g></g><g><clipPath id="clip-572"><path d="M 461.6 139.8 L 584.6 139.8 C 590.7 139.8 595.3 139.8 599.5 138.6 C 606.0 136.7 611.0 131.7 613.0 125.2 C 614.1 121.0 614.1 116.4 614.1 110.2 C 614.1 104.1 614.1 99.5 613.0 95.3 C 611.0 88.8 606.0 83.8 599.5 81.9 C 595.3 80.7 590.7 80.7 584.6 80.7 L 461.6 80.7 C 455.5 80.7 450.9 80.7 446.6 81.9 C 440.2 83.8 435.1 88.8 433.2 95.3 C 432.1 99.5 432.1 104.1 432.1 110.2 C 432.1 116.4 432.1 121.0 433.2 125.2 C 435.1 131.7 440.2 136.7 446.6 138.6 C 450.9 139.8 455.5 139.8 461.6 139.8 Z M 461.6 139.8 "></path></clipPath><g clip-path="url(#clip-572)"><g><clipPath id="clip-573"><path d="M 428.1 74.7 L 618.1 74.7 L 618.1 141.8 L 428.1 141.8 Z M 428.1 74.7 "></path></clipPath><g clip-path="url(#clip-573)"><image xlink:href="../../3A383725-9A45-4955-BFDA-A423E87DD194/assets/D5BAA0E7A80E113D25EB92D00157B4C8.jpeg" width="300.00" height="300.00" transform="matrix(1.00, 0.00, -0.00, -1.00, 432.1, 139.8)"></image><path d="M 432.1 139.8 L 614.1 139.8 L 614.1 80.7 L 432.1 80.7 Z M 432.1 139.8 " fill="#009BFC" fill-opacity="0.50"></path></g></g></g></g><g><clipPath id="clip-574"><path d="M 432.1 80.7 L 614.1 80.7 L 614.1 139.8 L 432.1 139.8 Z M 432.1 80.7 "></path></clipPath><g clip-path="url(#clip-574)"><text xml:space="preserve" font-family="Helvetica-Light" font-size="32.0" fill="#FEFFFE" transform="matrix(1.00, 0.00, -0.00, -1.00, 482.0, 99.0)">b</text><text xml:space="preserve" font-family="Helvetica-Light" font-size="32.0" fill="#FEFFFE" transform="matrix(1.00, 0.00, -0.00, -1.00, 501.6, 99.0)">u</text><text xml:space="preserve" font-family="Helvetica-Light" font-size="32.0" fill="#FEFFFE" transform="matrix(1.00, 0.00, -0.00, -1.00, 519.3, 99.0)">f</text><text xml:space="preserve" font-family="Helvetica-Light" font-size="32.0" fill="#FEFFFE" transform="matrix(1.00, 0.00, -0.00, -1.00, 527.7, 99.0)">f</text><text xml:space="preserve" font-family="Helvetica-Light" font-size="32.0" fill="#FEFFFE" transform="matrix(1.00, 0.00, -0.00, -1.00, 536.6, 99.0)">e</text><text xml:space="preserve" font-family="Helvetica-Light" font-size="32.0" fill="#FEFFFE" transform="matrix(1.00, 0.00, -0.00, -1.00, 554.4, 99.0)">r</text></g></g><g><clipPath id="clip-575"><path d="M 0.3 131.7 L 439.5 131.7 L 439.5 300.5 L 0.3 300.5 Z M 0.3 131.7 "></path></clipPath><g clip-path="url(#clip-575)"><path d="M 436.5 165.0 C 302.1 125.4 158.7 71.4 6.6 3.0 L 5.7 2.5 " fill="none" stroke="#000000" stroke-width="2.00" transform="matrix(1.00, 0.00, 0.00, -1.00, 1.7, 298.6)"></path><path d="M 12.5 299.1 L 1.7 298.6 L 8.5 290.3 L 8.3 295.7 Z M 12.5 299.1 " fill="#000000"></path></g></g></g></svg>