<?xml version="1.0" encoding="UTF-8" standalone="no"?><svg xmlns="http://www.w3.org/2000/svg" xmlns:xlink="http://www.w3.org/1999/xlink" clip-rule="evenodd" stroke-miterlimit="4.00" viewBox="0 0 485 303"><desc>SVG generated by Keynote</desc><defs></defs><g transform="matrix(1.00, 0.00, -0.00, -1.00, 0.0, 303.0)"><g><clipPath id="clip-560"><path d="M 81.7 0.0 L 484.6 0.0 L 484.6 145.9 L 81.7 145.9 Z M 81.7 0.0 "></path></clipPath><g clip-path="url(#clip-560)"><image xlink:href="1C40C184CABDD85811700C407653F2E6.png" width="401.00" height="144.00" transform="matrix(1.00, 0.00, -0.00, -1.00, 82.7, 144.9)" opacity="0.50"></image><path d="M 120.0 143.9 L 446.3 143.9 C 456.2 143.9 461.2 143.9 466.5 142.2 C 472.3 140.1 476.8 135.5 479.0 129.7 C 480.6 124.4 480.6 119.4 480.6 109.4 L 480.6 40.4 C 480.6 30.5 480.6 25.5 479.0 20.2 C 476.8 14.4 472.3 9.8 466.5 7.7 C 461.2 6.0 456.2 6.0 446.2 6.0 L 120.0 6.0 C 110.2 6.0 105.2 6.0 99.9 7.7 C 94.1 9.8 89.5 14.4 87.4 20.2 C 85.7 25.5 85.7 30.5 85.7 40.5 L 85.7 109.6 C 85.7 119.4 85.7 124.4 87.4 129.7 C 89.5 135.5 94.1 140.1 99.9 142.2 C 105.2 143.9 110.2 143.9 120.2 143.9 Z M 120.0 143.9 " fill="#A6AAA8"></path></g></g><g><clipPath id="clip-561"><path d="M 81.7 6.0 L 484.6 6.0 L 484.6 143.9 L 81.7 143.9 Z M 81.7 6.0 "></path></clipPath><g clip-path="url(#clip-561)"><text xml:space="preserve" font-family="Helvetica-Light" font-size="32.0" fill="#000000" transform="matrix(1.00, 0.00, -0.00, -1.00, 192.0, 44.0)">s</text><text xml:space="preserve" font-family="Helvetica-Light" font-size="32.0" fill="#000000" transform="matrix(1.00, 0.00, -0.00, -1.00, 208.0, 44.0)">h</text><text xml:space="preserve" font-family="Helvetica-Light" font-size="32.0" fill="#000000" transform="matrix(1.00, 0.00, -0.00, -1.00, 225.8, 44.0)">a</text><text xml:space="preserve" font-family="Helvetica-Light" font-size="32.0" fill="#000000" transform="matrix(1.00, 0.00, -0.00, -1.00, 243.6, 44.0)">p</text><text xml:space="preserve" font-family="Helvetica-Light" font-size="32.0" fill="#000000" transform="matrix(1.00, 0.00, -0.00, -1.00, 263.1, 44.0)">e</text><text xml:space="preserve" font-family="Helvetica-Light" font-size="32.0" fill="#000000" transform="matrix(1.00, 0.00, -0.00, -1.00, 280.9, 44.0)"> </text><text xml:space="preserve" font-family="Helvetica-Light" font-size="32.0" fill="#000000" transform="matrix(1.00, 0.00, -0.00, -1.00, 289.8, 44.0)">=</text><text xml:space="preserve" font-family="Helvetica-Light" font-size="32.0" fill="#000000" transform="matrix(1.00, 0.00, -0.00, -1.00, 310.9, 44.0)">(</text><text xml:space="preserve" font-family="Helvetica-Light" font-size="32.0" fill="#000000" transform="matrix(1.00, 0.00, -0.00, -1.00, 321.6, 44.0)">3</text><text xml:space="preserve" font-family="Helvetica-Light" font-size="32.0" fill="#000000" transform="matrix(1.00, 0.00, -0.00, -1.00, 339.4, 44.0)">,</text><text xml:space="preserve" font-family="Helvetica-Light" font-size="32.0" fill="#000000" transform="matrix(1.00, 0.00, -0.00, -1.00, 348.3, 44.0)"> </text><text xml:space="preserve" font-family="Helvetica-Light" font-size="32.0" fill="#000000" transform="matrix(1.00, 0.00, -0.00, -1.00, 357.2, 44.0)">4</text><text xml:space="preserve" font-family="Helvetica-Light" font-size="32.0" fill="#000000" transform="matrix(1.00, 0.00, -0.00, -1.00, 375.0, 44.0)">)</text></g></g><g><clipPath id="clip-562"><path d="M -7.3 53.9 L 46.5 53.9 L 46.5 138.9 L -7.3 138.9 Z M -7.3 53.9 "></path></clipPath><g clip-path="url(#clip-562)"><text xml:space="preserve" font-family="Helvetica-Light" font-size="50.0" fill="#000000" transform="matrix(1.00, 0.00, -0.00, -1.00, 6.0, 78.0)">a</text></g></g><g><clipPath id="clip-563"><path d="M 162.8 139.5 L 220.6 139.5 L 220.6 302.5 L 162.8 302.5 Z M 162.8 139.5 "></path></clipPath><g clip-path="url(#clip-563)"><path d="M 3.6 160.2 C -7.7 111.4 7.7 59.9 49.5 5.7 L 50.2 4.9 " fill="none" stroke="#000000" stroke-width="2.00" transform="matrix(1.00, 0.00, 0.00, -1.00, 164.8, 300.9)"></path><path d="M 216.6 290.4 L 218.8 300.9 L 209.1 296.3 L 214.3 295.2 Z M 216.6 290.4 " fill="#000000"></path></g></g><g><clipPath id="clip-564"><path d="M 83.5 75.6 L 273.5 75.6 L 273.5 142.7 L 83.5 142.7 Z M 83.5 75.6 "></path></clipPath><g clip-path="url(#clip-564)"><image xlink:href="BD2C05DF742F5D7E0C933DBA99D54EDD.png" width="188.00" height="65.00" transform="matrix(1.00, 0.00, -0.00, -1.00, 84.5, 141.7)" opacity="0.50"></image></g></g><g><clipPath id="clip-565"><path d="M 117.0 140.7 L 240.0 140.7 C 246.1 140.7 250.7 140.7 255.0 139.5 C 261.4 137.6 266.5 132.6 268.4 126.1 C 269.5 121.9 269.5 117.3 269.5 111.2 C 269.5 105.0 269.5 100.4 268.4 96.2 C 266.5 89.7 261.4 84.7 255.0 82.8 C 250.7 81.6 246.1 81.6 240.0 81.6 L 117.0 81.6 C 110.9 81.6 106.3 81.6 102.1 82.8 C 95.6 84.7 90.6 89.7 88.7 96.2 C 87.5 100.4 87.5 105.0 87.5 111.2 C 87.5 117.3 87.5 121.9 88.7 126.1 C 90.6 132.6 95.6 137.6 102.1 139.5 C 106.3 140.7 110.9 140.7 117.0 140.7 Z M 117.0 140.7 "></path></clipPath><g clip-path="url(#clip-565)"><g><clipPath id="clip-566"><path d="M 83.5 75.6 L 273.5 75.6 L 273.5 142.7 L 83.5 142.7 Z M 83.5 75.6 "></path></clipPath><g clip-path="url(#clip-566)"><image xlink:href="D5BAA0E7A80E113D25EB92D00157B4C8.jpeg" width="300.00" height="300.00" transform="matrix(1.00, 0.00, -0.00, -1.00, 87.5, 140.7)"></image><path d="M 87.5 140.7 L 269.5 140.7 L 269.5 81.6 L 87.5 81.6 Z M 87.5 140.7 " fill="#009BFC" fill-opacity="0.50"></path></g></g></g></g><g><clipPath id="clip-567"><path d="M 87.5 81.6 L 269.5 81.6 L 269.5 140.7 L 87.5 140.7 Z M 87.5 81.6 "></path></clipPath><g clip-path="url(#clip-567)"><text xml:space="preserve" font-family="Helvetica-Light" font-size="32.0" fill="#FEFFFE" transform="matrix(1.00, 0.00, -0.00, -1.00, 137.0, 100.0)">b</text><text xml:space="preserve" font-family="Helvetica-Light" font-size="32.0" fill="#FEFFFE" transform="matrix(1.00, 0.00, -0.00, -1.00, 156.6, 100.0)">u</text><text xml:space="preserve" font-family="Helvetica-Light" font-size="32.0" fill="#FEFFFE" transform="matrix(1.00, 0.00, -0.00, -1.00, 174.3, 100.0)">f</text><text xml:space="preserve" font-family="Helvetica-Light" font-size="32.0" fill="#FEFFFE" transform="matrix(1.00, 0.00, -0.00, -1.00, 182.7, 100.0)">f</text><text xml:space="preserve" font-family="Helvetica-Light" font-size="32.0" fill="#FEFFFE" transform="matrix(1.00, 0.00, -0.00, -1.00, 191.6, 100.0)">e</text><text xml:space="preserve" font-family="Helvetica-Light" font-size="32.0" fill="#FEFFFE" transform="matrix(1.00, 0.00, -0.00, -1.00, 209.4, 100.0)">r</text></g></g></g></svg>