<?xml version="1.0" encoding="UTF-8" standalone="no"?><svg xmlns="http://www.w3.org/2000/svg" xmlns:xlink="http://www.w3.org/1999/xlink" clip-rule="evenodd" stroke-miterlimit="4.00" viewBox="0 0 1234 204"><desc>SVG generated by Keynote</desc><defs><pattern id="69E0B646-5361-4631-8AB2-6FBF9CF8F7FB" patternUnits="userSpaceOnUse" width="300" height="300" viewBox="0 0 300 300" patternTransform="matrix(1.000000, 0.000000, 0.000000, -1.000000, 5.359375, 196.656200)"><image xlink:href="../../615F7CD4-E262-41F7-8138-806EC6AB1FAB/assets/90096E66F30E4D38552F9ACA9C23E8B7.jpeg" width="300.00" height="300.00"></image></pattern></defs><g transform="matrix(1.00, 0.00, -0.00, -1.00, 0.0, 204.0)"><image xlink:href="../../615F7CD4-E262-41F7-8138-806EC6AB1FAB/assets/46D09132145A178D8DFFA1C359874782.png" width="1231.00" height="198.00" transform="matrix(1.00, 0.00, -0.00, -1.00, 1.4, 198.7)" opacity="0.50"></image><g><clipPath id="clip-126"><path d="M 43.7 196.7 L 1190.3 196.7 C 1201.3 196.7 1206.9 196.7 1212.8 194.8 C 1219.3 192.4 1224.4 187.3 1226.8 180.8 C 1228.6 174.9 1228.6 169.3 1228.6 158.1 L 1228.6 45.4 C 1228.6 34.4 1228.6 28.9 1226.8 22.9 C 1224.4 16.4 1219.3 11.3 1212.8 9.0 C 1206.9 7.1 1201.3 7.1 1190.1 7.1 L 43.7 7.1 C 32.7 7.1 27.1 7.1 21.2 9.0 C 14.7 11.3 9.6 16.4 7.2 22.9 C 5.4 28.9 5.4 34.4 5.4 45.6 L 5.4 158.3 C 5.4 169.3 5.4 174.9 7.2 180.8 C 9.6 187.3 14.7 192.4 21.2 194.8 C 27.1 196.7 32.7 196.7 43.9 196.7 Z M 43.7 196.7 "></path></clipPath><g clip-path="url(#clip-126)"><path d="M 5.4 7.1 L 1228.6 7.1 L 1228.6 196.7 L 5.4 196.7 Z M 5.4 7.1 " fill="url(#69E0B646-5361-4631-8AB2-6FBF9CF8F7FB)"></path><path d="M 5.4 196.7 L 1228.6 196.7 L 1228.6 7.1 L 5.4 7.1 Z M 5.4 196.7 " fill="#009BFC" fill-opacity="0.50"></path></g></g><g><clipPath id="clip-127"><path d="M -0.5 7.1 L 1234.5 7.1 L 1234.5 196.7 L -0.5 196.7 Z M -0.5 7.1 "></path></clipPath><g clip-path="url(#clip-127)"><text xml:space="preserve" font-family="Helvetica-Light" font-size="46.0" fill="#FEFFFE" transform="matrix(1.00, 0.00, -0.00, -1.00, 11.0, 85.0)">T</text><text xml:space="preserve" font-family="Helvetica-Light" font-size="46.0" fill="#FEFFFE" transform="matrix(1.00, 0.00, -0.00, -1.00, 31.5, 85.0)">a</text><text xml:space="preserve" font-family="Helvetica-Light" font-size="46.0" fill="#FEFFFE" transform="matrix(1.00, 0.00, -0.00, -1.00, 57.0, 85.0)">s</text><text xml:space="preserve" font-family="Helvetica-Light" font-size="46.0" fill="#FEFFFE" transform="matrix(1.00, 0.00, -0.00, -1.00, 80.0, 85.0)">k</text></g></g></g></svg>