<?xml version="1.0" encoding="UTF-8" standalone="no"?><svg xmlns="http://www.w3.org/2000/svg" xmlns:xlink="http://www.w3.org/1999/xlink" clip-rule="evenodd" stroke-miterlimit="4.00" viewBox="0 0 1669 815"><desc>SVG generated by Keynote</desc><defs></defs><g transform="matrix(1.00, 0.00, -0.00, -1.00, 0.0, 815.0)"><image xlink:href="A593E70A32919F674C6F0850B93385A0.png" width="1666.00" height="808.00" transform="matrix(1.00, 0.00, -0.00, -1.00, 1.7, 809.7)" opacity="0.50"></image><path d="M 94.8 807.7 L 1574.3 807.7 C 1599.8 807.7 1612.8 807.7 1626.6 803.4 C 1641.7 797.9 1653.6 786.0 1659.1 770.9 C 1663.4 757.1 1663.4 744.1 1663.4 718.2 L 1663.4 96.8 C 1663.4 71.2 1663.4 58.2 1659.1 44.5 C 1653.6 29.4 1641.7 17.5 1626.6 12.0 C 1612.8 7.6 1599.8 7.6 1573.9 7.6 L 94.8 7.6 C 69.2 7.6 56.3 7.6 42.5 12.0 C 27.4 17.5 15.5 29.4 10.0 44.5 C 5.7 58.2 5.7 71.2 5.7 97.2 L 5.7 718.6 C 5.7 744.1 5.7 757.1 10.0 770.9 C 15.5 786.0 27.4 797.9 42.5 803.4 C 56.3 807.7 69.2 807.7 95.2 807.7 Z M 94.8 807.7 " fill="#EAEAEA"></path></g></svg>